<svg width="72" height="57" viewBox="0 0 72 57" fill="none" xmlns="http://www.w3.org/2000/svg">
<g clip-path="url(#clip0_108_51)">
<path d="M3.73618 13.7458C3.73489 13.7831 3.73489 13.8274 3.73489 13.9162V14.2466C3.73489 14.3353 3.73489 14.3797 3.73618 14.417C3.77797 15.5292 4.72303 16.4215 5.90082 16.4614C5.94068 16.4627 5.98761 16.4627 6.08212 16.4627C6.17599 16.4627 6.22292 16.4627 6.26213 16.4614C7.44057 16.4215 8.38628 15.5292 8.42741 14.417C8.42935 14.3797 8.42935 14.3353 8.42935 14.2466V13.9162C8.42935 13.8274 8.42935 13.7831 8.42741 13.7458C8.38628 12.6336 7.44057 11.7406 6.26278 11.7013C6.22292 11.7001 6.17599 11.7001 6.08212 11.7001C5.98761 11.7001 5.94068 11.7001 5.90082 11.7013C4.72303 11.7406 3.77797 12.6336 3.73618 13.7458ZM34.4867 21.6328V30.7499C34.4867 32.3352 35.0987 33.0494 37.0313 33.0494C37.8407 33.0494 38.6366 32.8245 39.113 32.6547V36.3289C38.3029 36.6009 37.0653 36.7372 36.0515 36.7372C31.9897 36.7372 30.0642 34.7023 30.0642 31.185V12.7885H34.4867V18.6395H39.113V21.6335L34.4867 21.6328Z" fill="white"/>
<path fill-rule="evenodd" clip-rule="evenodd" d="M40.6111 27.1751C40.6111 21.7747 44.0166 18.0961 49.4665 18.0961C55.2892 18.0961 58.1752 22.3444 57.8705 28.5046H45.1545C45.3847 31.6651 46.8678 33.2678 49.4948 33.2678C51.7153 33.2678 52.8938 32.1968 53.4017 30.6821H57.722C56.8823 34.3955 53.9417 36.7376 49.4671 36.7376C43.942 36.7376 40.6111 33.0936 40.6111 27.6239V27.1751ZM49.433 21.6352C47.0093 21.6352 45.5608 22.9326 45.1545 25.5119L53.4286 25.4437C53.1908 23.0374 51.8908 21.6352 49.433 21.6352Z" fill="white"/>
<path d="M21.1875 18.0961C18.3434 18.0961 16.5882 19.7766 15.71 21.4295L15.5062 18.64H11.2888V36.193H15.7107V26.3278C15.7107 23.4161 17.2549 21.634 19.5887 21.634C21.9224 21.634 22.7864 23.1782 22.7864 25.8514V36.193H27.2083V24.8993C27.2154 20.9807 25.5142 18.0961 21.1875 18.0961ZM64.7639 21.4295C65.8864 19.232 68.1789 18.0961 69.9006 18.0961C70.2067 18.0961 70.6895 18.1366 70.955 18.1976V21.634C70.5277 21.5905 70.0986 21.5679 69.6692 21.5658C66.5261 21.5658 64.7639 23.4572 64.7639 26.6685V36.193H60.3407V18.64H64.6269L64.7639 21.4295ZM0.878998 18.64V21.6301H3.87105V36.193H8.29484V18.64H0.878998Z" fill="white"/>
</g>
<defs>
<clipPath id="clip0_108_51">
<rect width="70.4168" height="50.0742" fill="white" transform="translate(0.878937 0.746582)"/>
</clipPath>
</defs>
</svg>
