<svg width="56" height="57" viewBox="0 0 56 57" fill="none" xmlns="http://www.w3.org/2000/svg">
<rect width="56" height="57" rx="8" fill="#3F4C5A"/>
<g clip-path="url(#clip0_108_614)">
<mask id="mask0_108_614" style="mask-type:luminance" maskUnits="userSpaceOnUse" x="12" y="13" width="32" height="31">
<path d="M44 13.0977H12V43.0977H44V13.0977Z" fill="white"/>
</mask>
<g mask="url(#mask0_108_614)">
<path fill-rule="evenodd" clip-rule="evenodd" d="M23.9295 20.1799C23.9295 17.947 25.7395 16.137 27.9723 16.137C30.2051 16.137 32.0152 17.947 32.0152 20.1799C32.0152 20.8619 32.5681 21.4149 33.2502 21.4149C33.9323 21.4149 34.4852 20.8619 34.4852 20.1799C34.4852 16.5829 31.5693 13.667 27.9723 13.667C24.3754 13.667 21.4595 16.5829 21.4595 20.1799C21.4595 22.1417 22.3273 23.8999 23.6968 25.0928L18.7582 33.8163C18.4186 33.8321 18.0775 33.9272 17.7628 34.1089C16.711 34.7162 16.3506 36.0612 16.9578 37.113C17.5651 38.1648 18.9101 38.5252 19.9619 37.9179C20.9504 37.3472 21.3282 36.1249 20.866 35.1068L26.3899 25.3494C26.7227 24.7615 26.5213 24.0151 25.9378 23.6745C24.7339 22.9716 23.9295 21.669 23.9295 20.1799ZM29.9615 21.1188C30.0961 20.8341 30.1714 20.5158 30.1714 20.1799C30.1714 18.9653 29.1869 17.9807 27.9723 17.9807C26.7578 17.9807 25.7732 18.9653 25.7732 20.1799C25.7732 21.3481 26.6841 22.3035 27.8345 22.3747L33.4275 32.0603C33.7684 32.6506 34.5232 32.8531 35.1138 32.5126C36.3267 31.8134 37.8642 31.7646 39.1591 32.5122C41.0927 33.6286 41.7553 36.1012 40.6389 38.0349C39.9154 39.2879 38.6226 40.0087 37.2707 40.0548C36.5416 40.0797 35.7973 39.9079 35.1162 39.5147C34.5255 39.1736 33.7702 39.376 33.4292 39.9667C33.0881 40.5574 33.2905 41.3127 33.8812 41.6537C34.974 42.2847 36.1774 42.5636 37.355 42.5234C39.523 42.4493 41.6107 41.2916 42.778 39.2699C44.5764 36.1548 43.5091 32.1716 40.3941 30.3731C38.691 29.3899 36.7291 29.2641 35.0083 29.8585L29.9615 21.1188ZM20.8837 39.5147C18.95 40.6311 16.4774 39.9685 15.361 38.0349C14.2446 36.1012 14.9071 33.6286 16.8408 32.5122C17.4315 32.1712 17.6339 31.4159 17.2928 30.8252C16.9518 30.2345 16.1965 30.0321 15.6058 30.3731C12.4907 32.1716 11.4234 36.1548 13.2219 39.2699C15.0204 42.3849 19.0036 43.4522 22.1187 41.6537C23.777 40.6963 24.8539 39.1197 25.2284 37.3873H35.4197C35.5861 37.5955 35.7933 37.7767 36.038 37.9179C37.0898 38.5252 38.4348 38.1648 39.0421 37.113C39.6493 36.0612 39.289 34.7162 38.2371 34.109C37.1853 33.5017 35.8404 33.8621 35.2331 34.9139L35.2311 34.9174H24.139C23.47 34.9174 22.9227 35.45 22.9045 36.1187C22.8673 37.4806 22.1453 38.7862 20.8837 39.5147Z" fill="white"/>
</g>
</g>
<defs>
<clipPath id="clip0_108_614">
<rect width="32" height="33" fill="white" transform="translate(12 12)"/>
</clipPath>
</defs>
</svg>
