<svg width="86" height="57" viewBox="0 0 86 57" fill="none" xmlns="http://www.w3.org/2000/svg">
<g clip-path="url(#clip0_108_119)">
<path fill-rule="evenodd" clip-rule="evenodd" d="M9.92267 17.564C10.1397 17.347 10.3025 17.1842 10.0854 17.1842C10.046 17.1842 9.9843 17.1883 9.9048 17.1936C9.21934 17.2391 7.21313 17.3724 6.77551 15.7192C6.28715 13.8743 8.94598 8.39387 9.05451 8.17683C9.10873 7.95978 8.94598 7.68848 8.62038 7.68848C8.4329 7.68848 8.27138 7.84392 8.17155 7.93999C8.12687 7.98296 8.09452 8.01405 8.07781 8.01405C7.3961 8.87294 6.64249 9.78324 5.88838 10.6942C3.64114 13.4087 1.38945 16.1285 1.0238 17.5098C-0.224211 22.122 4.60505 24.0212 7.64368 24.3467C7.69795 24.3467 7.69795 24.2925 7.69795 24.2925V22.6646C7.75221 20.4399 8.56616 18.7578 9.92267 17.564ZM85.3466 17.5098C84.9607 16.0541 82.5151 13.1121 80.1411 10.2563L80.1403 10.2562C79.5056 9.4927 78.8763 8.73514 78.2925 8.01405C78.284 8.00589 78.2732 7.99283 78.2601 7.97653C78.1854 7.88436 78.0267 7.68848 77.7494 7.68848C77.4783 7.68848 77.2611 7.95978 77.3697 8.17683C77.4783 8.39387 80.1372 13.9285 79.6489 15.7192C79.2114 17.3724 77.2048 17.2391 76.5196 17.1936C76.4401 17.1883 76.3784 17.1842 76.339 17.1842C76.1219 17.1842 76.2847 17.347 76.5017 17.564C77.858 18.7578 78.7261 20.4399 78.7261 22.6104V24.2382C78.7261 24.2653 78.7261 24.2789 78.733 24.2857C78.74 24.2925 78.7538 24.2925 78.7808 24.2925C81.8734 24.0212 86.5944 22.122 85.3466 17.5098ZM73.3546 28.1993C73.3546 29.7728 71.2383 30.641 69.8818 30.641C68.4168 30.641 66.3549 29.7728 66.3549 28.1993V22.6646C66.3549 21.091 68.4168 20.3856 69.8818 20.3856C71.2383 20.3856 73.3546 21.1452 73.3546 22.6646V28.1993ZM69.8818 16.9129C66.6261 16.9671 62.8279 18.812 62.8279 22.6104V28.4163C62.8279 32.2688 66.6261 34.1138 69.8818 34.1138C73.0833 34.0595 76.8816 32.2688 76.8816 28.4163V22.6646C76.8816 18.8663 73.0833 16.9671 69.8818 16.9129ZM45.3552 30.641C46.7118 30.641 48.828 29.7728 48.828 28.1993V22.6646C48.828 21.1452 46.7118 20.3856 45.3552 20.3856C43.8902 20.3856 41.8282 21.091 41.8282 22.6646V28.1993C41.8282 29.7728 43.8902 30.641 45.3552 30.641ZM38.247 22.6104C38.247 18.812 42.0453 16.9671 45.301 16.9129C48.5024 16.9671 52.3007 18.8663 52.3007 22.6646V28.4163C52.3007 32.2688 48.5024 34.0595 45.301 34.1138C42.0453 34.1138 38.247 32.2688 38.247 28.4163V22.6104ZM30.7048 17.2386C33.5264 17.2386 35.4255 17.5099 38.0301 18.2153C38.0843 18.2153 38.1387 18.3238 38.1387 18.4323C37.2162 19.1378 36.7821 20.1687 36.5651 21.2539C35.1543 20.8741 33.9605 20.7113 32.4954 20.6028V34.0054C32.4954 34.0596 32.4412 34.0596 32.3869 34.0596H29.0227C28.9685 34.0596 28.9142 34.0596 28.9142 34.0054V20.6028C27.3949 20.7113 26.0926 20.9284 24.6818 21.2539C24.519 20.1687 24.1392 19.192 23.271 18.4323C23.2167 18.378 23.271 18.2696 23.3796 18.2153C25.9841 17.5099 27.9375 17.2386 30.7048 17.2386ZM62.9363 17.0753C62.665 17.0211 61.9596 16.9125 61.3084 16.9668C58.1071 17.0753 54.4715 18.9745 54.4715 22.6642V34.1134C54.4715 34.1676 54.5258 34.1676 54.58 34.1676H57.9442C57.9985 34.1676 58.0528 34.1676 58.0528 34.1134V22.6642C58.0528 21.4162 59.5721 20.7108 60.8201 20.4395C61.2 19.2457 61.9053 18.3233 62.9906 17.4551C63.1534 17.2923 63.0991 17.0753 62.9363 17.0753ZM19.581 23.7493C19.6352 23.695 19.6352 23.695 19.6352 23.6407V22.664C19.6352 21.0905 17.8446 20.3308 16.4338 20.3308C14.9688 20.3308 13.0696 21.0905 13.0696 22.664V23.8035H19.4725C19.5267 23.8035 19.581 23.8035 19.581 23.7493ZM9.48832 22.6097C9.48832 18.7572 13.1238 16.8581 16.4338 16.8038C19.6895 16.8581 23.108 18.7572 23.108 22.664V25.8654C23.108 26.3538 22.7281 26.7337 22.2398 26.7337H13.0696V28.47C13.0696 30.0436 14.9688 30.9661 16.4338 30.9661C17.5191 30.9661 19.0926 30.4234 19.6895 29.3925C19.7437 29.3382 19.7437 29.3382 19.798 29.3382C20.8059 29.8661 21.4316 30.2242 22.3512 30.7504C22.4713 30.8192 22.5964 30.8908 22.7281 30.9661C22.7824 31.0203 22.8367 31.1288 22.7824 31.183C21.4802 33.2993 18.8213 34.276 16.4338 34.276C13.1238 34.2217 9.48832 32.3768 9.48832 28.47V22.6097Z" fill="white"/>
</g>
<defs>
<clipPath id="clip0_108_119">
<rect width="85.4997" height="50.0674" fill="white" transform="translate(0.0856934 0.750244)"/>
</clipPath>
</defs>
</svg>
