<svg width="135" height="57" viewBox="0 0 135 57" fill="none" xmlns="http://www.w3.org/2000/svg">
<g clip-path="url(#clip0_108_71)">
<mask id="mask0_108_71" style="mask-type:luminance" maskUnits="userSpaceOnUse" x="0" y="13" width="134" height="31">
<path d="M133.348 13.8502H0.850708V43.1217H133.348V13.8502Z" fill="white"/>
</mask>
<g mask="url(#mask0_108_71)">
<path d="M42.8557 29.8814C42.7394 29.7069 42.565 29.5906 42.3517 29.5712C42.1385 29.5519 41.9252 29.6294 41.7702 29.7845C40.3938 30.9088 38.6879 31.5485 36.9045 31.5485C33.0662 31.5485 30.2748 28.5826 30.2748 24.4924C30.2748 20.4021 32.9693 17.7076 36.8269 17.7076C38.4553 17.7076 40.0449 18.2116 41.3631 19.1421C41.6539 19.4135 42.119 19.3746 42.3905 19.0839C42.4098 19.0645 42.4292 19.0258 42.4487 19.0064L42.6619 18.6962C42.9333 18.3666 42.8751 17.882 42.5262 17.6107C40.8784 16.37 38.843 15.7303 36.7882 15.7884C31.8063 15.7884 28.1812 19.4716 28.1812 24.5311C28.1812 29.7263 31.8256 33.487 36.8657 33.487C39.1144 33.487 41.2855 32.6922 43.0108 31.2384C43.3209 30.9669 43.3791 30.5017 43.1077 30.1915C43.0883 30.1722 43.0883 30.1722 43.069 30.1528L42.8557 29.8814Z" fill="white"/>
<path d="M48.0311 31.4323C47.6046 31.3741 46.9649 31.2772 46.9649 29.8815V16.8547C47.0037 16.4476 46.6935 16.0987 46.2864 16.0599C46.2477 16.0599 46.2089 16.0599 46.1701 16.0599H45.7242C45.3365 16.0212 44.9876 16.3313 44.9489 16.7191C44.9489 16.7578 44.9489 16.816 44.9489 16.8547V30.1723C44.9489 32.8861 46.7904 33.2932 47.876 33.2932C48.2831 33.3514 48.632 33.0606 48.6902 32.6535C48.6902 32.5954 48.6902 32.5566 48.6902 32.4985V32.1495C48.729 31.7812 48.4382 31.471 48.0892 31.4323C48.0699 31.4323 48.0505 31.4323 48.0311 31.4323Z" fill="white"/>
<path d="M51.2943 20.829H50.8484C50.4413 20.7902 50.0924 21.1004 50.0536 21.5074C50.0536 21.5463 50.0536 21.585 50.0536 21.6238V32.4019C50.0149 32.809 50.325 33.1579 50.7321 33.1967C50.7709 33.1967 50.8097 33.1967 50.8484 33.1967H51.2943C51.682 33.2354 52.0309 32.9253 52.0697 32.5375C52.0697 32.4988 52.0697 32.4406 52.0697 32.4019V21.6238C52.1085 21.2361 51.837 20.8678 51.4493 20.829C51.3912 20.829 51.3524 20.829 51.2943 20.829Z" fill="white"/>
<path d="M51.3678 16.0599H50.7669C50.3791 16.0212 50.0302 16.3313 49.9914 16.719C49.9914 16.7578 49.9914 16.8159 49.9914 16.8547V17.7077C49.9527 18.0954 50.224 18.4443 50.5924 18.4831C50.6506 18.4831 50.7087 18.4831 50.7475 18.4831H51.3484C51.7361 18.5218 52.0656 18.2504 52.1238 17.8628C52.1238 17.8046 52.1238 17.7658 52.1238 17.7077V16.8353C52.1626 16.4476 51.8718 16.0987 51.4841 16.0405C51.4647 16.0599 51.4065 16.0599 51.3678 16.0599Z" fill="white"/>
<path d="M64.8761 30.6181C64.7792 30.4243 64.5854 30.2886 64.3915 30.2499C64.1783 30.211 63.9651 30.2692 63.7906 30.4243C62.8795 31.1997 61.7358 31.6456 60.5339 31.6456C58.0914 31.7037 56.0754 29.7652 56.0172 27.3421C56.0172 27.2257 56.0172 27.1288 56.0172 27.0125C55.9009 24.57 57.7619 22.4958 60.2043 22.3795C60.3013 22.3795 60.3982 22.3795 60.4951 22.3795C61.5613 22.3989 62.5887 22.7672 63.4223 23.4457C63.5967 23.562 63.7906 23.6395 64.0038 23.6201C64.2171 23.6008 64.4109 23.465 64.5078 23.2712L64.6629 23.0192C64.818 22.8447 64.8761 22.6315 64.8568 22.4183C64.818 22.2244 64.7211 22.0499 64.566 21.9336C63.4029 21.0226 61.9684 20.5379 60.4758 20.5573C57.0058 20.441 54.1175 23.1549 53.9818 26.6054C53.9818 26.7411 53.9818 26.8962 53.9818 27.0319C53.8654 30.4825 56.5794 33.3902 60.0299 33.5065C60.185 33.5065 60.3206 33.5065 60.4758 33.5065C62.0847 33.5065 63.6355 32.9637 64.8761 31.9364C65.2251 31.6843 65.2832 31.2191 65.0506 30.8702L64.8761 30.6181Z" fill="white"/>
<path d="M71.9761 26.2759L75.5235 21.856C75.7174 21.6816 75.7756 21.3909 75.6787 21.1582C75.5429 20.9256 75.2909 20.7899 75.0195 20.8287H74.4186C74.0697 20.8287 73.7595 20.9838 73.5462 21.2551L70.2896 25.4035H68.6419V16.8547C68.6806 16.4476 68.3704 16.0987 67.9634 16.0599C67.9246 16.0599 67.8858 16.0599 67.8471 16.0599H67.4012C67.0135 16.0212 66.6646 16.3313 66.6258 16.7191C66.6258 16.7578 66.6258 16.816 66.6258 16.8547V32.4015C66.587 32.7892 66.8778 33.1382 67.2655 33.1963C67.3043 33.1963 67.3624 33.1963 67.4012 33.1963H67.8471C68.2541 33.2351 68.6031 32.9443 68.6612 32.5373C68.6612 32.4985 68.6612 32.4403 68.6612 32.4015V27.2257H70.309L73.9921 32.7117C74.1472 33.0413 74.4962 33.2351 74.845 33.2157H75.4654C75.7367 33.2545 75.9888 33.1382 76.1245 32.9056C76.2408 32.6729 76.202 32.4015 76.0275 32.1883L71.9761 26.2759Z" fill="white"/>
<path d="M88.9552 17.1649V16.8547C88.9945 16.4476 88.684 16.0987 88.2773 16.0599C88.238 16.0599 88.1995 16.0599 88.161 16.0599H75.6961C75.289 16.0212 74.9401 16.3313 74.9013 16.7384C74.9013 16.7771 74.9013 16.816 74.9013 16.8547V17.1649C74.8819 17.5719 75.2115 17.9209 75.5992 17.9209C75.6186 17.9209 75.6574 17.9209 75.6767 17.9209H80.8917V32.4015C80.8524 32.8087 81.1628 33.1576 81.5695 33.1963C81.6088 33.1963 81.6473 33.1963 81.6858 33.1963H82.1704C82.5586 33.2158 82.9075 32.925 82.9268 32.5373C82.9268 32.4985 82.9268 32.4597 82.9268 32.421V17.9209H88.161C88.5677 17.9403 88.9167 17.6108 88.9167 17.2037C88.9552 17.2037 88.9552 17.1842 88.9552 17.1649Z" fill="white"/>
<path d="M93.4904 20.7513C91.9398 20.8094 90.544 21.7399 89.8653 23.1357V21.6042C89.9046 21.2165 89.6134 20.8482 89.2067 20.8095C89.1674 20.8095 89.1289 20.8095 89.0904 20.8095H88.6637C88.2562 20.7707 87.9072 21.0809 87.8687 21.4879C87.8687 21.5267 87.8687 21.5655 87.8687 21.6042V32.3824C87.8302 32.7895 88.1399 33.1383 88.5474 33.1771C88.5859 33.1771 88.6252 33.1771 88.6637 33.1771H89.1097C89.4971 33.2159 89.8461 32.9058 89.8846 32.518C89.8846 32.4793 89.8846 32.4211 89.8846 32.3824V27.9238C89.8846 25.4037 91.1256 22.7286 93.4326 22.7286C93.8586 22.7674 94.2468 22.4766 94.2853 22.0501C94.2853 22.0113 94.2853 21.9726 94.2853 21.9532V21.5267C94.3238 21.139 94.0142 20.7901 93.6259 20.7513C93.6067 20.7513 93.5489 20.7513 93.4904 20.7513Z" fill="white"/>
<path d="M99.7957 20.5381C98.4192 20.5381 97.0627 20.9064 95.8803 21.6237C95.5313 21.8175 95.395 22.2633 95.5891 22.6123C95.6084 22.6317 95.6276 22.6704 95.6476 22.6898L95.8025 22.9418C96.0158 23.3102 96.4811 23.4265 96.83 23.2132C96.8493 23.2132 96.8493 23.1939 96.8686 23.1939C97.7213 22.6704 98.6911 22.3991 99.6794 22.3796C101.54 22.3796 102.432 23.3295 102.432 25.2875V25.4813H101.928C96.9464 25.4813 94.4067 26.9351 94.4067 29.8041C94.4067 32.2273 96.5389 33.5067 98.6518 33.5067C99.8928 33.5067 101.075 33.0027 101.928 32.0916C102.141 31.8783 102.316 31.6263 102.49 31.3743C102.49 31.3743 102.49 31.4325 102.49 31.4519V32.4017C102.452 32.7894 102.723 33.1384 103.13 33.1965C103.188 33.1965 103.227 33.1965 103.285 33.1965H103.673C104.06 33.2159 104.409 32.9251 104.429 32.5375C104.429 32.4986 104.429 32.4599 104.429 32.4211V25.3456C104.448 22.244 102.801 20.5381 99.7957 20.5381ZM98.9622 31.7427C97.256 31.7427 96.4811 30.6571 96.4811 29.6491C96.4811 27.3616 99.4083 27.0709 101.967 27.0709H102.452V27.4391C102.452 29.5134 101.114 31.7427 98.9622 31.7427Z" fill="white"/>
<path d="M115.512 20.8286H115.008C114.621 20.8093 114.272 21.0612 114.194 21.4296L111.034 29.7458C110.937 30.0171 110.841 30.3079 110.763 30.5793C110.685 30.3079 110.608 30.0171 110.511 29.7458L107.351 21.4489C107.254 21.0612 106.905 20.8093 106.518 20.8286H105.994C105.761 20.8093 105.529 20.9062 105.393 21.1C105.277 21.3133 105.277 21.5459 105.393 21.7591L109.561 32.5953C109.678 32.9637 110.027 33.1963 110.414 33.1769H111.209C111.577 33.1963 111.926 32.9637 112.023 32.5953L116.171 21.7979C116.268 21.5846 116.249 21.3326 116.133 21.1388C115.977 20.9256 115.745 20.8093 115.512 20.8286Z" fill="white"/>
<path d="M122.511 20.5381C118.905 20.5381 116.405 23.1939 116.405 27.0321C116.288 30.4826 118.983 33.371 122.434 33.4873C122.569 33.4873 122.724 33.4873 122.86 33.4873C124.353 33.4873 125.787 33.0027 126.989 32.1109C127.338 31.8783 127.435 31.4131 127.202 31.0836C127.202 31.0836 127.202 31.0836 127.202 31.0642L127.009 30.7928C126.912 30.6183 126.756 30.502 126.563 30.4439C126.349 30.4051 126.117 30.4633 125.942 30.5989C125.07 31.2774 124.004 31.6458 122.918 31.6458C120.805 31.6458 118.634 30.2888 118.479 27.2453H126.912C127.358 27.2453 127.706 26.8964 127.726 26.4699V26.4505C127.706 22.8062 125.71 20.5381 122.511 20.5381ZM122.453 22.2633C123.907 22.2633 125.497 23.155 125.651 25.6363H118.556C118.828 23.6979 120.495 22.2633 122.453 22.2633Z" fill="white"/>
<path d="M132.667 31.4323C132.24 31.3741 131.601 31.2772 131.601 29.8815V16.8547C131.639 16.4476 131.329 16.0987 130.922 16.0599C130.884 16.0599 130.844 16.0599 130.806 16.0599H130.36C129.972 16.0212 129.624 16.3313 129.585 16.7191C129.585 16.7578 129.585 16.816 129.585 16.8547V30.1723C129.585 32.8861 131.426 33.2932 132.512 33.2932C132.919 33.332 133.268 33.0606 133.326 32.6535C133.326 32.5954 133.326 32.5566 133.326 32.4985V32.1495C133.365 31.7812 133.074 31.471 132.725 31.4323C132.706 31.4323 132.686 31.4323 132.667 31.4323Z" fill="white"/>
<path d="M14.1101 33.3321H7.05393C4.76649 33.3321 2.92491 31.4712 2.92491 29.2031V22.1663C2.96368 21.5848 2.53721 21.1001 1.97504 21.042C1.41287 20.9838 0.908863 21.4297 0.850708 21.9918C0.850708 22.05 0.850708 22.1081 0.850708 22.1663V29.2031C0.850708 32.6342 3.64216 35.4063 7.05393 35.4063H14.0907C14.6722 35.3676 15.0987 34.8636 15.0406 34.282C15.0212 33.778 14.6141 33.3709 14.1101 33.3321Z" fill="white"/>
<path d="M16.2054 13.8502H9.16861C8.58703 13.889 8.16059 14.393 8.21875 14.9746C8.25752 15.4786 8.6646 15.8857 9.16861 15.9244H16.2054C18.4928 15.9244 20.3344 17.7854 20.3344 20.0728V27.1096C20.3732 27.6911 20.8772 28.1176 21.4588 28.0594C21.9628 28.0207 22.3699 27.6136 22.4086 27.1096V20.0728C22.4086 16.6416 19.6365 13.8502 16.2054 13.8502Z" fill="white"/>
<path d="M6.04747 28.7573C5.67915 29.1837 5.71792 29.8428 6.14439 30.2305C6.53209 30.5794 7.11365 30.5601 7.50135 30.2305L8.7808 28.9705C9.14908 28.5247 9.09093 27.8656 8.64508 27.4972C8.25737 27.1871 7.71458 27.1871 7.32688 27.4972L6.04747 28.7573Z" fill="white"/>
<path d="M10.2726 24.5316C9.90428 24.958 9.94311 25.6172 10.3695 26.0049C10.7572 26.3537 11.3388 26.3344 11.7265 26.0049L12.9866 24.7448C13.3548 24.299 13.2967 23.6399 12.8508 23.2715C12.4631 22.9614 11.9204 22.9614 11.5327 23.2715L10.2726 24.5316Z" fill="white"/>
<path d="M16.5101 18.6964C16.2387 18.6964 15.9673 18.8127 15.7735 19.0065L14.5134 20.2666C14.1451 20.693 14.1839 21.3522 14.6103 21.7399C14.9981 22.0887 15.5796 22.0694 15.9673 21.7399L17.2273 20.4798C17.6344 20.0727 17.615 19.4136 17.2079 19.0065C17.0528 18.8127 16.7815 18.7157 16.5101 18.6964Z" fill="white"/>
<path d="M105.455 38.1977V37.6549H108.614V38.1977H107.355V41.9196H106.734V38.1977H105.455Z" fill="white"/>
<path d="M108.686 41.9006V38.8959H109.268V39.3223C109.443 39.0316 109.714 38.8765 110.063 38.8765C110.12 38.8765 110.198 38.8765 110.276 38.8959V39.4968C110.218 39.4968 110.16 39.4775 110.12 39.4775C110.082 39.4775 110.043 39.4775 110.024 39.4775C109.733 39.4775 109.52 39.5938 109.384 39.807C109.365 39.8457 109.346 39.8845 109.346 39.9233C109.326 39.9621 109.326 40.0008 109.306 40.0396C109.287 40.0784 109.287 40.1171 109.287 40.1559C109.287 40.1947 109.287 40.2334 109.268 40.2528C109.268 40.2723 109.268 40.311 109.268 40.3497C109.268 40.3885 109.268 40.4273 109.268 40.4855V41.9199H108.686V41.9006Z" fill="white"/>
<path d="M110.587 40.3884C110.587 40.1752 110.627 39.9813 110.685 39.8068C110.743 39.613 110.82 39.458 110.936 39.3028C111.053 39.1478 111.189 39.0315 111.363 38.954C111.538 38.857 111.731 38.8182 111.945 38.8182C112.391 38.8182 112.72 38.9733 112.953 39.2641V38.9151H113.535V41.9199H112.953V41.5709C112.817 41.726 112.681 41.8423 112.507 41.9004C112.351 41.9586 112.158 41.9973 111.945 41.9973C111.731 41.9973 111.538 41.9586 111.363 41.8617C111.189 41.7648 111.053 41.6485 110.936 41.4933C110.82 41.3383 110.743 41.1638 110.685 40.9893C110.607 40.7955 110.587 40.6016 110.587 40.3884ZM111.228 40.0201C111.208 40.117 111.189 40.2139 111.169 40.3109C111.169 40.4078 111.169 40.5047 111.189 40.6016C111.208 40.6986 111.228 40.7955 111.247 40.873C111.285 40.97 111.325 41.0475 111.363 41.1056C111.422 41.2026 111.518 41.2801 111.634 41.3383C111.751 41.3964 111.867 41.4158 112.023 41.4158C112.313 41.4158 112.526 41.3189 112.7 41.1251C112.856 40.9312 112.933 40.6792 112.933 40.3884C112.933 40.2527 112.914 40.117 112.875 39.9813C112.837 39.8457 112.778 39.7487 112.7 39.6518C112.623 39.5549 112.526 39.4773 112.41 39.4192C112.294 39.361 112.158 39.3417 112.023 39.3417C111.906 39.3417 111.809 39.361 111.712 39.3998C111.615 39.4386 111.538 39.4773 111.479 39.5355C111.422 39.5936 111.363 39.6712 111.305 39.7487C111.285 39.8457 111.247 39.9232 111.228 40.0201Z" fill="white"/>
<path d="M114.022 38.8955H114.642L115.379 41.0473L116.096 38.8955H116.698L115.611 41.9001H115.108L114.022 38.8955Z" fill="white"/>
<path d="M116.988 40.369C116.988 40.2139 117.007 40.0783 117.026 39.9426C117.066 39.8068 117.104 39.6905 117.162 39.5743C117.22 39.458 117.278 39.361 117.356 39.2835C117.434 39.2059 117.511 39.1284 117.608 39.0703C117.724 38.9733 117.86 38.9151 117.995 38.8764C118.132 38.8376 118.287 38.8182 118.422 38.8182C118.558 38.8182 118.693 38.8376 118.83 38.8764C118.965 38.9151 119.081 38.9733 119.217 39.0509C119.333 39.1284 119.45 39.2447 119.547 39.3804C119.644 39.5161 119.721 39.6905 119.76 39.8844C119.799 40.0395 119.818 40.2334 119.818 40.466V40.5241H117.589C117.589 40.8149 117.686 41.0475 117.86 41.222C117.995 41.3771 118.209 41.4546 118.481 41.4546C118.558 41.4546 118.635 41.4352 118.713 41.4158C118.79 41.3964 118.849 41.3577 118.907 41.3383C118.965 41.2995 119.023 41.2608 119.062 41.2026C119.101 41.1445 119.139 41.0863 119.179 41.0282H119.799C119.702 41.2608 119.585 41.4546 119.469 41.5903C119.333 41.726 119.198 41.823 119.042 41.8811C118.926 41.9199 118.83 41.9586 118.752 41.978C118.655 41.9974 118.558 41.9973 118.461 41.9973C118.015 41.9973 117.646 41.8617 117.375 41.5709C117.123 41.2608 116.988 40.873 116.988 40.369ZM119.198 40.0783C119.179 39.8457 119.101 39.6712 118.965 39.5355C118.81 39.3998 118.635 39.3417 118.441 39.3417C118.228 39.3417 118.054 39.4192 117.918 39.5549C117.763 39.6905 117.686 39.8844 117.646 40.0976H119.198V40.0783Z" fill="white"/>
<path d="M121.792 41.9006V37.6359H123.498C123.634 37.6359 123.75 37.6553 123.866 37.6747C123.983 37.694 124.099 37.7522 124.196 37.8103C124.292 37.8685 124.389 37.9267 124.487 38.0236C124.584 38.1011 124.661 38.198 124.719 38.3143C124.855 38.5276 124.913 38.7602 124.913 39.0317C124.913 39.303 124.855 39.5357 124.719 39.7489C124.584 39.9621 124.409 40.1172 124.196 40.2529C123.983 40.3692 123.75 40.4274 123.478 40.4274H122.374V41.92H121.792V41.9006ZM122.412 39.8458H123.498C123.75 39.8458 123.943 39.7683 124.099 39.6131C124.254 39.4581 124.332 39.2643 124.332 39.0122C124.332 38.7602 124.254 38.5664 124.099 38.4113C123.943 38.2562 123.731 38.1787 123.498 38.1787H122.412V39.8458Z" fill="white"/>
<path d="M125.109 40.369C125.109 40.2139 125.129 40.0783 125.149 39.9426C125.187 39.8068 125.226 39.6905 125.284 39.5743C125.342 39.458 125.401 39.361 125.478 39.2835C125.555 39.2059 125.633 39.1284 125.73 39.0703C125.847 38.9733 125.982 38.9151 126.118 38.8764C126.253 38.8376 126.408 38.8182 126.545 38.8182C126.68 38.8182 126.816 38.8376 126.951 38.8764C127.087 38.9151 127.203 38.9733 127.339 39.0509C127.455 39.1284 127.571 39.2447 127.668 39.3804C127.765 39.5161 127.843 39.6905 127.882 39.8844C127.92 40.0395 127.94 40.2334 127.94 40.466V40.5241H125.71C125.71 40.8149 125.807 41.0475 125.982 41.222C126.118 41.3771 126.331 41.4546 126.602 41.4546C126.68 41.4546 126.757 41.4352 126.835 41.4158C126.913 41.3964 126.971 41.3577 127.029 41.3383C127.087 41.2995 127.145 41.2608 127.184 41.2026C127.222 41.1445 127.262 41.0863 127.3 41.0282H127.92C127.823 41.2608 127.707 41.4546 127.591 41.5903C127.455 41.726 127.319 41.823 127.165 41.8811C127.048 41.9199 126.951 41.9586 126.873 41.978C126.777 41.9974 126.68 41.9973 126.583 41.9973C126.137 41.9973 125.769 41.8617 125.498 41.5709C125.245 41.2608 125.109 40.873 125.109 40.369ZM127.319 40.0783C127.3 39.8457 127.222 39.6712 127.087 39.5355C126.932 39.3998 126.757 39.3417 126.564 39.3417C126.35 39.3417 126.176 39.4192 126.04 39.5549C125.885 39.6905 125.807 39.8844 125.769 40.0976H127.319V40.0783Z" fill="white"/>
<path d="M128.654 41.9006V38.8959H129.236V39.3223C129.41 39.0316 129.682 38.8765 130.03 38.8765C130.088 38.8765 130.166 38.8765 130.243 38.8959V39.4968C130.185 39.4968 130.127 39.4775 130.088 39.4775C130.05 39.4775 130.01 39.4775 129.991 39.4775C129.701 39.4775 129.487 39.5938 129.352 39.807C129.333 39.8457 129.313 39.8845 129.313 39.9233C129.293 39.9621 129.293 40.0008 129.274 40.0396C129.255 40.0784 129.255 40.1171 129.255 40.1559C129.255 40.1947 129.255 40.2334 129.236 40.2528C129.236 40.2723 129.236 40.311 129.236 40.3497C129.236 40.3885 129.236 40.4273 129.236 40.4855V41.9199H128.654V41.9006Z" fill="white"/>
<path d="M130.79 41.9006V37.6359H131.372V40.0978L132.554 38.8959H133.31L131.914 40.2723L133.349 41.9006H132.535L131.372 40.5243V41.9006H130.79Z" fill="white"/>
<path d="M120.532 41.2996C120.532 41.4935 120.591 41.6486 120.707 41.7649C120.804 41.8618 120.94 41.92 121.114 41.92V41.0864V39.4968V37.6359H120.532V41.2996Z" fill="white"/>
<path d="M75.7377 37.9655H76.7845C77.5405 37.9655 78.1221 38.2756 78.1221 39.0704V39.0898C78.1221 39.9039 77.5405 40.2141 76.7845 40.2141H76.0479V41.9006H75.7377V37.9655ZM76.8039 39.9621C77.4436 39.9621 77.8119 39.6907 77.8119 39.0898V39.0704C77.8119 38.4307 77.4048 38.2174 76.7845 38.2174H76.0285V39.9621H76.8039Z" fill="white"/>
<path d="M78.4684 40.4853V40.4465C78.4684 39.5742 79.0885 38.9733 79.8642 38.9733C80.6392 38.9733 81.26 39.5548 81.26 40.4271V40.4659C81.26 41.3382 80.6392 41.9392 79.8642 41.9392C79.0693 41.9392 78.4684 41.3382 78.4684 40.4853ZM80.9496 40.4853V40.4465C80.9496 39.6905 80.4843 39.2252 79.8642 39.2252C79.2441 39.2252 78.7789 39.6905 78.7789 40.4465V40.4853C78.7789 41.2219 79.2441 41.6871 79.8642 41.6871C80.4843 41.6871 80.9496 41.2219 80.9496 40.4853Z" fill="white"/>
<path d="M81.5903 39.012H81.9L82.6757 41.532L83.4706 39.012H83.7225L84.4782 41.532L85.2539 39.012H85.5443L84.6338 41.9004H84.3041L83.5869 39.4966L82.8305 41.9004H82.5008L81.5903 39.012Z" fill="white"/>
<path d="M85.8938 40.4853V40.4465C85.8938 39.5742 86.4369 38.9733 87.2126 38.9733C87.9104 38.9733 88.472 39.4191 88.472 40.369V40.4659H86.185C86.2042 41.2413 86.5724 41.6678 87.2511 41.6678C87.7356 41.6678 88.046 41.4739 88.1623 41.0668H88.4527C88.3364 41.6096 87.8712 41.9197 87.2511 41.9197C86.4176 41.9392 85.8938 41.3576 85.8938 40.4853ZM88.1623 40.2527C88.1431 39.5548 87.7741 39.2252 87.2126 39.2252C86.6502 39.2252 86.2628 39.6129 86.2042 40.2527H88.1623Z" fill="white"/>
<path d="M89.1487 39.012H89.4399V39.6129C89.5947 39.2641 89.8851 38.9926 90.4089 38.9733V39.2446C89.8466 39.2641 89.4399 39.516 89.4399 40.2914V41.881H89.1487V39.012Z" fill="white"/>
<path d="M90.7371 40.4853V40.4465C90.7371 39.5742 91.2801 38.9733 92.055 38.9733C92.7529 38.9733 93.3153 39.4191 93.3153 40.369V40.4659H91.0275C91.0475 41.2413 91.4157 41.6678 92.0936 41.6678C92.5789 41.6678 92.8885 41.4739 93.0048 41.0668H93.296C93.1797 41.6096 92.7144 41.9197 92.0936 41.9197C91.2801 41.9392 90.7371 41.3576 90.7371 40.4853ZM93.0241 40.2527C93.0048 39.5548 92.6366 39.2252 92.0743 39.2252C91.512 39.2252 91.1245 39.6129 91.0668 40.2527H93.0241Z" fill="white"/>
<path d="M93.8042 40.5045V40.4657C93.8042 39.574 94.3858 38.9925 95.1414 38.9925C95.7038 38.9925 96.0335 39.322 96.1883 39.6709V37.6549H96.4795V41.9196H96.1883V41.2605C96.0335 41.6095 95.6267 41.9778 95.0837 41.9778C94.3665 41.939 93.8042 41.4156 93.8042 40.5045ZM96.1883 40.4851V40.4463C96.1883 39.6515 95.7623 39.2445 95.1615 39.2445C94.5406 39.2445 94.0946 39.6904 94.0946 40.4657V40.5045C94.0946 41.2993 94.5406 41.7064 95.1222 41.7064C95.7038 41.687 96.1883 41.2605 96.1883 40.4851Z" fill="white"/>
<path d="M99.0326 41.2415V41.9006H98.7414V37.6359H99.0326V39.6907C99.2067 39.3224 99.6141 38.9735 100.137 38.9735C100.854 38.9735 101.436 39.5357 101.436 40.4274V40.4661C101.436 41.3772 100.894 41.9394 100.137 41.9394C99.5556 41.9394 99.1874 41.5904 99.0326 41.2415ZM101.106 40.4855V40.4467C101.106 39.652 100.641 39.2255 100.079 39.2255C99.5171 39.2255 99.0125 39.652 99.0125 40.4467V40.4855C99.0125 41.2803 99.4978 41.6873 100.099 41.6873C100.7 41.6873 101.106 41.2609 101.106 40.4855Z" fill="white"/>
<path d="M102.873 41.6483L101.73 39.012H102.04L103.029 41.2994L103.94 39.012H104.231L102.641 42.889H102.331L102.873 41.6483Z" fill="white"/>
</g>
</g>
<defs>
<clipPath id="clip0_108_71">
<rect width="133.262" height="50.0696" fill="white" transform="translate(0.854248 0.748901)"/>
</clipPath>
</defs>
</svg>
