<svg width="136" height="57" viewBox="0 0 136 57" fill="none" xmlns="http://www.w3.org/2000/svg">
<g clip-path="url(#clip0_108_57)">
<path d="M5.30698 25.0514C5.25794 24.9872 5.19319 24.9367 5.11898 24.905C5.04475 24.8731 4.96358 24.861 4.88331 24.8697C4.80303 24.8784 4.72637 24.9077 4.66071 24.9547C4.59506 25.0017 4.54265 25.0649 4.50853 25.138L0.462724 33.2272C0.425868 33.3009 0.408466 33.3828 0.412171 33.4651C0.415876 33.5475 0.440566 33.6275 0.483896 33.6977C0.527225 33.7678 0.587757 33.8256 0.659743 33.8657C0.731729 33.9059 0.81278 33.927 0.895201 33.927H6.52879C6.61902 33.9291 6.70792 33.9049 6.78468 33.8575C6.86145 33.81 6.9228 33.7413 6.96126 33.6596C8.1765 31.1485 7.44003 27.3303 5.30698 25.0514Z" fill="white"/>
<path d="M8.2772 17.6944C7.2691 19.2455 6.68162 21.0321 6.57241 22.8788C6.46321 24.7255 6.83602 26.5689 7.65428 28.2281L10.3703 33.6601C10.4104 33.7404 10.4722 33.8079 10.5485 33.8552C10.625 33.9024 10.713 33.9274 10.8027 33.9274H16.4354C16.5177 33.9274 16.5988 33.9063 16.6708 33.8661C16.7428 33.826 16.8033 33.7682 16.8467 33.6981C16.89 33.6279 16.9147 33.5479 16.9184 33.4655C16.9221 33.3832 16.9047 33.3013 16.8678 33.2276C16.8678 33.2276 9.29014 18.0704 9.0997 17.6913C9.06198 17.6142 9.00338 17.5491 8.93046 17.5038C8.85753 17.4584 8.77334 17.4345 8.68751 17.4348C8.6016 17.4351 8.51757 17.4596 8.44503 17.5056C8.37242 17.5515 8.31429 17.6169 8.2772 17.6944Z" fill="white"/>
<path d="M74.3437 24.1803C74.3437 26.1833 75.273 27.7736 78.9073 28.4757C81.0762 28.9309 81.53 29.281 81.53 30.0038C81.53 30.7059 81.0747 31.1604 79.5473 31.1604C77.7016 31.1271 75.8926 30.6376 74.2818 29.7355V32.998C75.3764 33.5349 76.8217 34.1338 79.5066 34.1338C83.3062 34.1338 84.8139 32.4394 84.8139 29.9211L74.3437 24.1803ZM84.8139 29.9211C84.8139 27.5462 83.5542 26.4309 80.0019 25.6671C78.0403 25.2334 77.5653 24.7999 77.5653 24.1803C77.5653 23.3963 78.2673 23.0652 79.5685 23.0652C81.138 23.0652 82.6865 23.5402 84.1528 24.201V21.0826C82.7467 20.4427 81.2163 20.1253 79.6717 20.1535C76.1609 20.1535 74.3437 21.6815 74.3437 24.1803" fill="white"/>
<path d="M123.16 20.3596V33.9272H126.051V23.5811L127.27 26.3276L131.359 33.9272H134.993V20.3596H132.102V29.1156L131.008 26.5754L127.724 20.3596H123.16Z" fill="white"/>
<path d="M104.772 20.3596H101.612V33.9272H104.772V20.3596Z" fill="white"/>
<path d="M97.9659 29.9211C97.9659 27.5462 96.7062 26.4309 93.1547 25.6671C91.1931 25.2334 90.7182 24.7999 90.7182 24.1803C90.7182 23.3963 91.42 23.0652 92.7212 23.0652C94.2908 23.0652 95.8392 23.5402 97.3055 24.201V21.0826C95.8995 20.4427 94.3683 20.1253 92.8237 20.1535C89.3137 20.1535 87.4961 21.6815 87.4961 24.1803C87.4961 26.1833 88.4256 27.7736 92.0601 28.4757C94.2282 28.9309 94.6828 29.281 94.6828 30.0038C94.6828 30.7059 94.2274 31.1604 92.7001 31.1604C90.8543 31.1271 89.0453 30.6376 87.4343 29.7355V32.998C88.5289 33.5349 89.9741 34.1338 92.6586 34.1338C96.4589 34.1338 97.9659 32.4394 97.9659 29.9211Z" fill="white"/>
<path d="M49.7991 20.3596V33.9272H56.2933L57.3159 30.9947H52.9792V20.3596H49.7991Z" fill="white"/>
<path d="M36.9671 20.3596V23.2919H40.4777V33.9272H43.6578V23.2919H47.4163V20.3596H36.9671Z" fill="white"/>
<path d="M32.3533 20.3596H28.1856L23.4544 33.9272H27.0675L27.7382 31.6422C29.3901 32.1272 31.1466 32.1272 32.7985 31.6422L33.4692 33.9272H37.083L32.3533 20.3596ZM30.2694 29.1955C29.6808 29.1955 29.0953 29.1113 28.5306 28.9455L30.2694 23.0245L32.0081 28.9474C31.4434 29.1127 30.8578 29.1961 30.2694 29.1955Z" fill="white"/>
<path d="M67.4923 20.3596H63.3249L58.5937 33.9272H62.2075L62.8782 31.6422C64.5301 32.1272 66.2866 32.1272 67.9385 31.6422L68.6092 33.9272H72.223L67.4923 20.3596ZM65.4086 29.1955C64.8201 29.1955 64.2346 29.1113 63.6699 28.9455L65.4086 23.0245L67.1473 28.9474C66.5826 29.1127 65.9971 29.1961 65.4086 29.1955Z" fill="white"/>
<path d="M116.16 20.3596H111.993L107.261 33.9272H110.875L111.546 31.6422C113.198 32.1272 114.954 32.1272 116.607 31.6422L117.277 33.9272H120.891L116.16 20.3596ZM114.075 29.1955C113.486 29.1955 112.901 29.1113 112.336 28.9455L114.075 23.0245L115.814 28.9474C115.249 29.1127 114.664 29.1961 114.075 29.1955Z" fill="white"/>
</g>
<defs>
<clipPath id="clip0_108_57">
<rect width="135.362" height="50.076" fill="white" transform="translate(0.39505 0.745972)"/>
</clipPath>
</defs>
</svg>
