<svg width="116" height="57" viewBox="0 0 116 57" fill="none" xmlns="http://www.w3.org/2000/svg">
<g clip-path="url(#clip0_108_123)">
<path d="M0.694824 7.00623H38.2519V44.562H0.694824V7.00623Z" fill="white"/>
<path d="M46.6003 21.6266H48.8232V24.8161H51.4594V21.6266H53.689V29.9708H51.4594V26.3931H48.8232V29.9708H46.6003V21.6266Z" fill="white"/>
<path d="M57.0025 27.5201C57.0025 26.9233 57.2894 26.6236 57.7584 26.374C58.3913 26.9566 59.0187 27.5555 59.6122 28.2115C59.1962 28.5262 58.8454 28.671 58.3444 28.671C57.6721 28.671 57.0025 28.2393 57.0025 27.5201ZM61.4686 25.4502C61.4469 25.9866 61.3041 26.5372 60.9207 26.9573C60.4524 26.5032 59.9698 26.06 59.4803 25.629C60.3694 25.1124 61.2762 24.5754 61.2762 23.5211C61.2762 21.9623 59.8419 21.4628 58.3784 21.4628C57.0692 21.4628 55.5975 21.9855 55.5975 23.4599C55.5975 24.192 55.9346 24.7644 56.607 25.2925C55.5764 25.7732 54.9646 26.408 54.9646 27.5671C54.9646 29.2909 56.5376 30.1066 58.1276 30.1066C59.0364 30.1066 60.0092 29.9537 60.7264 29.3283C60.9105 29.52 61.0594 29.7355 61.2294 29.9632H63.6133L62.1294 28.3107C62.9043 27.5419 63.3611 26.5134 63.4121 25.4495L61.4686 25.4502ZM57.5185 23.568C57.5185 23.1493 57.8869 22.8257 58.4063 22.8257C58.9209 22.8257 59.3382 23.0772 59.3382 23.568C59.3382 24.1193 58.7264 24.4557 58.3213 24.6957C57.9855 24.4306 57.5185 24.0486 57.5185 23.568Z" fill="white"/>
<path d="M66.7986 23.1875H67.3899C68.2342 23.1875 69.0166 23.3302 69.0166 24.1092C69.0166 25.052 68.1071 25.0765 67.3899 25.0765H66.7986V23.1875ZM64.5737 29.9634H66.7986V26.6556H67.2669C68.0921 26.6556 68.3804 27.0186 68.8358 28.4543L69.315 29.9634H71.6357L70.8262 27.6855C70.4074 26.6699 70.3585 26.0337 69.6413 25.8427V25.8208C70.714 25.568 71.2422 24.8257 71.2422 23.7109C71.2422 22.2752 70.037 21.605 68.5483 21.605H64.573L64.5737 29.9634Z" fill="white"/>
<path d="M78.4517 26.4184H79.1313C79.8988 26.4184 80.7775 26.5033 80.7775 27.4149C80.7775 28.2646 79.9239 28.3816 79.1094 28.3816H78.4517V26.4184ZM76.2234 29.9634H79.7431C81.2438 29.9634 83.005 29.5454 83.005 27.5421C83.005 26.5271 82.426 25.9262 81.3166 25.7006V25.6748C82.25 25.3654 82.7852 24.7761 82.7852 23.7238C82.7852 22.2854 81.6272 21.605 80.0686 21.605H76.2241L76.2234 29.9634ZM78.4517 23.1875H79.0961C79.8394 23.1875 80.5576 23.2581 80.5576 24.0263C80.5576 24.7319 79.8034 24.9086 79.0734 24.9086H78.451L78.4517 23.1875Z" fill="white"/>
<path d="M84.2747 21.6055H86.5037V28.3114H89.9503V29.9632H84.2747V21.6055Z" fill="white"/>
<path d="M92.5269 25.7861C92.5269 24.3368 93.0645 23.1139 94.4157 23.1139C95.7708 23.1139 96.3123 24.3368 96.3123 25.7861C96.3123 27.164 95.7708 28.4548 94.4157 28.4548C93.0645 28.4548 92.5269 27.164 92.5269 25.7861ZM90.229 25.7861C90.229 28.4391 91.6874 30.1066 94.4157 30.1066C97.1479 30.1066 98.6086 28.4391 98.6086 25.7861C98.6086 23.1023 97.1698 21.4628 94.4157 21.4628C91.66 21.4628 90.229 23.1023 90.229 25.7861Z" fill="white"/>
<path d="M106.774 29.7692C106.139 29.9249 105.429 30.1063 104.295 30.1063C102.069 30.1063 99.4932 28.982 99.4932 25.8204C99.4932 22.9083 101.524 21.4618 104.28 21.4618C105.134 21.4618 105.961 21.6528 106.762 21.8927L106.582 23.6975C105.86 23.3019 105.169 23.1129 104.404 23.1129C102.818 23.1129 101.788 24.2617 101.788 25.8204C101.788 27.4614 102.951 28.4539 104.58 28.4539C105.311 28.4539 106.055 28.2635 106.662 28.0201L106.774 29.7692Z" fill="white"/>
<path d="M107.81 21.6182H110.02V25.0339H110.044L112.608 21.6182H115.258L112.204 25.5064L115.495 29.9616H112.693L110.044 26.1651H110.02V29.9616H107.81V21.6182Z" fill="white"/>
</g>
<defs>
<clipPath id="clip0_108_123">
<rect width="115.014" height="50.0743" fill="white" transform="translate(0.692627 0.746826)"/>
</clipPath>
</defs>
</svg>
