<svg width="56" height="56" viewBox="0 0 56 56" fill="none" xmlns="http://www.w3.org/2000/svg">
<rect width="56" height="56" rx="8" fill="#3F4C5A"/>
<g clip-path="url(#clip0_108_575)">
<g clip-path="url(#clip1_108_575)">
<path d="M44 28C44 32.2435 42.3143 36.3131 39.3137 39.3137C36.3131 42.3143 32.2435 44 28 44C23.7565 44 19.6869 42.3143 16.6863 39.3137C13.6857 36.3131 12 32.2435 12 28C12 27.6464 12.1405 27.3072 12.3905 27.0572C12.6406 26.8071 12.9797 26.6667 13.3333 26.6667C13.687 26.6667 14.0261 26.8071 14.2761 27.0572C14.5262 27.3072 14.6667 27.6464 14.6667 28C14.6667 30.6371 15.4487 33.2149 16.9137 35.4076C18.3788 37.6003 20.4612 39.3092 22.8976 40.3184C25.3339 41.3276 28.0148 41.5916 30.6012 41.0771C33.1876 40.5627 35.5634 39.2928 37.4281 37.4281C39.2928 35.5634 40.5627 33.1876 41.0771 30.6012C41.5916 28.0148 41.3276 25.3339 40.3184 22.8976C39.3092 20.4612 37.6003 18.3788 35.4076 16.9137C33.2149 15.4487 30.6371 14.6667 28 14.6667C27.6464 14.6667 27.3072 14.5262 27.0572 14.2761C26.8071 14.0261 26.6667 13.687 26.6667 13.3333C26.6667 12.9797 26.8071 12.6406 27.0572 12.3905C27.3072 12.1405 27.6464 12 28 12C32.2421 12.0046 36.3091 13.6918 39.3086 16.6914C42.3082 19.6909 43.9954 23.7579 44 28ZM25.7027 26.6667H22.6667C22.313 26.6667 21.9739 26.8071 21.7239 27.0572C21.4738 27.3072 21.3333 27.6464 21.3333 28C21.3333 28.3536 21.4738 28.6928 21.7239 28.9428C21.9739 29.1929 22.313 29.3333 22.6667 29.3333H25.7027C25.9063 29.687 26.1886 29.989 26.5277 30.216C26.8668 30.443 27.2536 30.5889 27.6581 30.6424C28.0627 30.6959 28.4741 30.6556 28.8606 30.5245C29.247 30.3935 29.5981 30.1752 29.8867 29.8867C30.1752 29.5981 30.3935 29.247 30.5245 28.8606C30.6556 28.4741 30.6959 28.0627 30.6424 27.6581C30.5889 27.2536 30.443 26.8668 30.216 26.5277C29.989 26.1886 29.687 25.9063 29.3333 25.7027V21.3333C29.3333 20.9797 29.1929 20.6406 28.9428 20.3905C28.6928 20.1405 28.3536 20 28 20C27.6464 20 27.3072 20.1405 27.0572 20.3905C26.8071 20.6406 26.6667 20.9797 26.6667 21.3333V25.7027C26.2672 25.935 25.935 26.2672 25.7027 26.6667ZM14.436 23.712C14.6997 23.712 14.9575 23.6338 15.1768 23.4873C15.396 23.3408 15.5669 23.1325 15.6678 22.8889C15.7688 22.6453 15.7952 22.3772 15.7437 22.1185C15.6923 21.8599 15.5653 21.6223 15.3788 21.4359C15.1923 21.2494 14.9548 21.1224 14.6961 21.071C14.4375 21.0195 14.1694 21.0459 13.9258 21.1468C13.6821 21.2477 13.4739 21.4186 13.3274 21.6379C13.1809 21.8572 13.1027 22.115 13.1027 22.3787C13.1027 22.7323 13.2431 23.0714 13.4932 23.3215C13.7432 23.5715 14.0824 23.712 14.436 23.712ZM17.628 18.9427C17.8917 18.9427 18.1495 18.8645 18.3688 18.718C18.588 18.5715 18.7589 18.3632 18.8598 18.1196C18.9608 17.8759 18.9872 17.6079 18.9357 17.3492C18.8843 17.0906 18.7573 16.853 18.5708 16.6665C18.3843 16.4801 18.1468 16.3531 17.8881 16.3016C17.6295 16.2502 17.3614 16.2766 17.1178 16.3775C16.8741 16.4784 16.6659 16.6493 16.5194 16.8686C16.3729 17.0878 16.2947 17.3456 16.2947 17.6093C16.2947 17.963 16.4351 18.3021 16.6852 18.5521C16.9352 18.8022 17.2744 18.9427 17.628 18.9427ZM22.372 15.788C22.6357 15.788 22.8935 15.7098 23.1128 15.5633C23.332 15.4168 23.5029 15.2085 23.6038 14.9649C23.7048 14.7213 23.7312 14.4532 23.6797 14.1945C23.6283 13.9359 23.5013 13.6983 23.3148 13.5119C23.1283 13.3254 22.8908 13.1984 22.6321 13.147C22.3735 13.0955 22.1054 13.1219 21.8618 13.2228C21.6181 13.3237 21.4099 13.4946 21.2634 13.7139C21.1169 13.9332 21.0387 14.191 21.0387 14.4547C21.0387 14.8083 21.1791 15.1474 21.4292 15.3975C21.6792 15.6475 22.0184 15.788 22.372 15.788Z" fill="white"/>
</g>
</g>
<defs>
<clipPath id="clip0_108_575">
<rect width="32" height="32" fill="white" transform="translate(12 12)"/>
</clipPath>
<clipPath id="clip1_108_575">
<rect width="32" height="32" fill="white" transform="translate(12 12)"/>
</clipPath>
</defs>
</svg>
