<svg width="56" height="57" viewBox="0 0 56 57" fill="none" xmlns="http://www.w3.org/2000/svg">
<rect width="56" height="57" rx="8" fill="#3F4C5A"/>
<g clip-path="url(#clip0_108_599)">
<path fill-rule="evenodd" clip-rule="evenodd" d="M36.3619 31.0708V39.7075C36.3619 40.3891 35.8094 40.9423 35.1278 40.9423C34.4463 40.9423 33.8938 40.3898 33.8938 39.7083V31.07C33.8938 30.3884 34.4463 29.8359 35.1278 29.8359C35.8094 29.8359 36.3619 30.3892 36.3619 31.0708Z" fill="white"/>
<path fill-rule="evenodd" clip-rule="evenodd" d="M39.4469 36.6234H30.8086C30.127 36.6234 29.5745 36.0709 29.5745 35.3893C29.5745 34.7078 30.127 34.1553 30.8086 34.1553H39.4469C40.1284 34.1553 40.6809 34.7078 40.6809 35.3893C40.6809 36.0709 40.1284 36.6234 39.4469 36.6234Z" fill="white"/>
<path fill-rule="evenodd" clip-rule="evenodd" d="M23.4043 32.304H19.7021C19.0206 32.304 18.4681 32.8565 18.4681 33.5381V37.2402C18.4681 37.9217 19.0206 38.4742 19.7021 38.4742H23.4043C24.0858 38.4742 24.6383 37.9217 24.6383 37.2402V33.5381C24.6383 32.8565 24.0858 32.304 23.4043 32.304ZM19.7021 29.8359C17.6575 29.8359 16 31.4934 16 33.5381V37.2402C16 39.2848 17.6575 40.9423 19.7021 40.9423H23.4043C25.4489 40.9423 27.1064 39.2848 27.1064 37.2402V33.5381C27.1064 31.4934 25.4489 29.8359 23.4043 29.8359H19.7021Z" fill="white"/>
<path fill-rule="evenodd" clip-rule="evenodd" d="M36.9787 18.7298H33.2766C32.5951 18.7298 32.0426 19.2823 32.0426 19.9638V23.666C32.0426 24.3475 32.5951 24.9 33.2766 24.9H36.9787C37.6603 24.9 38.2128 24.3475 38.2128 23.666V19.9638C38.2128 19.2823 37.6603 18.7298 36.9787 18.7298ZM33.2766 16.2617C31.232 16.2617 29.5745 17.9192 29.5745 19.9638V23.666C29.5745 25.7106 31.232 27.3681 33.2766 27.3681H36.9787C39.0234 27.3681 40.6809 25.7106 40.6809 23.666V19.9638C40.6809 17.9192 39.0234 16.2617 36.9787 16.2617H33.2766Z" fill="white"/>
<path fill-rule="evenodd" clip-rule="evenodd" d="M23.4043 18.7298H19.7021C19.0206 18.7298 18.4681 19.2823 18.4681 19.9638V23.666C18.4681 24.3475 19.0206 24.9 19.7021 24.9H23.4043C24.0858 24.9 24.6383 24.3475 24.6383 23.666V19.9638C24.6383 19.2823 24.0858 18.7298 23.4043 18.7298ZM19.7021 16.2617C17.6575 16.2617 16 17.9192 16 19.9638V23.666C16 25.7106 17.6575 27.3681 19.7021 27.3681H23.4043C25.4489 27.3681 27.1064 25.7106 27.1064 23.666V19.9638C27.1064 17.9192 25.4489 16.2617 23.4043 16.2617H19.7021Z" fill="white"/>
</g>
<defs>
<clipPath id="clip0_108_599">
<rect width="32" height="33" fill="white" transform="translate(12 12)"/>
</clipPath>
</defs>
</svg>
