<svg width="159" height="57" viewBox="0 0 159 57" fill="none" xmlns="http://www.w3.org/2000/svg">
<g clip-path="url(#clip0_108_773)">
<path d="M101.858 3.42697H100.693V40.0502H101.858V3.42697Z" fill="#D5C898"/>
<path d="M141.013 1.12219H140.441V42.355H141.013V1.12219Z" fill="#433F3F"/>
<path d="M113.947 2.8438H111.003V40.6334H113.947V2.8438Z" fill="#E16C75"/>
<path d="M122.218 0H120.062V43.478H122.218V0Z" fill="#009FC3"/>
<path d="M153.6 2.21649H147.714V41.2623H153.6V2.21649Z" fill="#FCE28C"/>
<path d="M133.968 2.89259H131.344V40.5854H133.968V2.89259Z" fill="#40BD99"/>
<path d="M158.358 6.41947H95.4711C95.1199 6.41947 94.8353 6.70414 94.8353 7.0553V36.4235C94.8353 36.7746 95.1199 37.0593 95.4711 37.0593H158.358C158.709 37.0593 158.994 36.7746 158.994 36.4235V7.0553C158.994 6.70414 158.709 6.41947 158.358 6.41947Z" fill="#002A96"/>
<path d="M98.8292 33.3899V9.85186H103.738V19.1329H110.968V9.85186H115.844V33.3899H110.968V23.7394H103.738V33.3899H98.8292Z" fill="white"/>
<path d="M135.462 9.85184V25.1179C135.462 30.6994 131.898 33.6253 127.055 33.6253C122.212 33.6253 118.682 30.6994 118.682 25.1179V9.85184H123.592V25.2186C123.592 27.5389 124.903 29.0522 127.055 29.0522C129.207 29.0522 130.552 27.5389 130.552 25.2186V9.85184H135.461H135.462Z" fill="white"/>
<path d="M147.13 33.3899H138.287V9.85184H147.03C151.804 9.85184 154.427 12.7104 154.427 16.4425C154.427 19.0656 152.746 20.5115 151.132 21.3858C152.981 22.1254 154.999 23.7735 154.999 26.7993C154.999 30.7335 152.04 33.3899 147.13 33.3899ZM146.66 14.291H143.196V19.2677H146.693C148.307 19.2677 149.417 18.3259 149.417 16.7461C149.417 15.1662 148.307 14.291 146.66 14.291ZM147.063 23.6054H143.196V28.9523H147.096C148.61 28.9523 149.988 28.112 149.988 26.2618C149.988 24.4116 148.542 23.6054 147.063 23.6054Z" fill="white"/>
<path d="M98.8292 33.3899V9.85186H103.738V19.1329H110.968V9.85186H115.844V33.3899H110.968V23.7394H103.738V33.3899H98.8292Z" fill="white"/>
<path d="M135.462 9.85184V25.1179C135.462 30.6994 131.898 33.6253 127.055 33.6253C122.212 33.6253 118.682 30.6994 118.682 25.1179V9.85184H123.592V25.2186C123.592 27.5389 124.903 29.0522 127.055 29.0522C129.207 29.0522 130.552 27.5389 130.552 25.2186V9.85184H135.461H135.462Z" fill="white"/>
<path d="M147.13 33.3899H138.287V9.85184H147.03C151.804 9.85184 154.427 12.7104 154.427 16.4425C154.427 19.0656 152.746 20.5115 151.132 21.3858C152.981 22.1254 154.999 23.7735 154.999 26.7993C154.999 30.7335 152.04 33.3899 147.13 33.3899ZM146.66 14.291H143.196V19.2677H146.693C148.307 19.2677 149.417 18.3259 149.417 16.7461C149.417 15.1662 148.307 14.291 146.66 14.291ZM147.063 23.6054H143.196V28.9523H147.096C148.61 28.9523 149.988 28.112 149.988 26.2618C149.988 24.4116 148.542 23.6054 147.063 23.6054Z" fill="white"/>
<path d="M8.71416 25.5346L4.88524 17.1774L5.55128 25.9342V33.3922H0.856522V10.085H5.9842L10.246 18.8084H10.3792L14.6078 10.085H19.7687V33.3922H15.0407V25.9342L15.7067 17.1774L11.8778 25.5346H8.71493H8.71416Z" fill="#433F3F"/>
<path d="M21.4904 18.6086C21.4904 13.2811 24.9863 9.85184 30.2138 9.85184C35.4414 9.85184 38.9706 13.2811 38.9706 18.6086V24.8686C38.9706 30.196 35.4747 33.6253 30.2138 33.6253C24.953 33.6253 21.4904 30.196 21.4904 24.8686V18.6086ZM34.1434 18.4762C34.1434 15.8121 32.4784 14.3809 30.2146 14.3809C27.9509 14.3809 26.3191 15.8128 26.3191 18.4762V25.0025C26.3191 27.6667 27.9509 29.0979 30.2146 29.0979C32.4784 29.0979 34.1434 27.6659 34.1434 25.0025V18.4762Z" fill="#433F3F"/>
<path d="M53.7287 33.3922L45.3382 18.6752L45.538 29.4967V33.3922H40.6768V10.085H45.2383L53.6288 23.9028L53.429 13.9805V10.085H58.2902V33.3922H53.7287Z" fill="#433F3F"/>
<path d="M69.7584 14.48V33.3922H64.8971V14.48H59.5363V10.085H75.1525V14.48H69.7584Z" fill="#433F3F"/>
<path d="M75.5552 10.085H80.4165L84.4785 18.5087H84.5451L88.6071 10.085H93.4684L86.9087 24.036V33.3922H82.0808V24.036L75.5544 10.085H75.5552Z" fill="#433F3F"/>
<path d="M8.71416 25.5346L4.88524 17.1774L5.55128 25.9342V33.3922H0.856522V10.085H5.9842L10.246 18.8084H10.3792L14.6078 10.085H19.7687V33.3922H15.0407V25.9342L15.7067 17.1774L11.8778 25.5346H8.71493H8.71416Z" fill="#002A96"/>
<path d="M21.4904 18.6086C21.4904 13.2811 24.9863 9.85184 30.2138 9.85184C35.4414 9.85184 38.9706 13.2811 38.9706 18.6086V24.8686C38.9706 30.196 35.4747 33.6253 30.2138 33.6253C24.953 33.6253 21.4904 30.196 21.4904 24.8686V18.6086ZM34.1434 18.4762C34.1434 15.8121 32.4784 14.3809 30.2146 14.3809C27.9509 14.3809 26.3191 15.8128 26.3191 18.4762V25.0025C26.3191 27.6667 27.9509 29.0979 30.2146 29.0979C32.4784 29.0979 34.1434 27.6659 34.1434 25.0025V18.4762Z" fill="#002A96"/>
<path d="M53.7287 33.3922L45.3382 18.6752L45.538 29.4967V33.3922H40.6768V10.085H45.2383L53.6288 23.9028L53.429 13.9805V10.085H58.2902V33.3922H53.7287Z" fill="#002A96"/>
<path d="M69.7584 14.48V33.3922H64.8971V14.48H59.5363V10.085H75.1525V14.48H69.7584Z" fill="#002A96"/>
<path d="M75.5552 10.085H80.4165L84.4785 18.5087H84.5451L88.6071 10.085H93.4684L86.9087 24.036V33.3922H82.0808V24.036L75.5544 10.085H75.5552Z" fill="#002A96"/>
<path d="M30.1642 50.5737H29.2918L31.8149 43.7021H32.6739L35.197 50.5737H34.3247L32.2713 44.7892H32.2176L30.1642 50.5737ZM30.4863 47.8895H34.0026V48.6276H30.4863V47.8895ZM37.0994 43.7021V50.5737H36.2673V43.7021H37.0994ZM41.4252 50.5737V43.7021H43.747C44.2861 43.7021 44.7268 43.7994 45.069 43.994C45.4135 44.1864 45.6685 44.447 45.834 44.7758C45.9995 45.1046 46.0823 45.4715 46.0823 45.8763C46.0823 46.2812 45.9995 46.6492 45.834 46.9802C45.6707 47.3113 45.4179 47.5752 45.0757 47.772C44.7335 47.9666 44.2951 48.0639 43.7604 48.0639H42.0962V47.3258H43.7336C44.1027 47.3258 44.3991 47.262 44.6227 47.1345C44.8464 47.007 45.0086 46.8348 45.1093 46.6178C45.2122 46.3986 45.2636 46.1515 45.2636 45.8763C45.2636 45.6012 45.2122 45.3551 45.1093 45.1382C45.0086 44.9212 44.8453 44.7512 44.6194 44.6282C44.3935 44.5029 44.0937 44.4403 43.7202 44.4403H42.2573V50.5737H41.4252ZM49.3536 50.681C48.8884 50.681 48.4802 50.5703 48.129 50.3489C47.78 50.1274 47.5071 49.8176 47.3103 49.4195C47.1157 49.0213 47.0184 48.556 47.0184 48.0237C47.0184 47.4868 47.1157 47.0182 47.3103 46.6178C47.5071 46.2174 47.78 45.9065 48.129 45.6851C48.4802 45.4636 48.8884 45.3529 49.3536 45.3529C49.8189 45.3529 50.226 45.4636 50.575 45.6851C50.9261 45.9065 51.199 46.2174 51.3936 46.6178C51.5905 47.0182 51.6889 47.4868 51.6889 48.0237C51.6889 48.556 51.5905 49.0213 51.3936 49.4195C51.199 49.8176 50.9261 50.1274 50.575 50.3489C50.226 50.5703 49.8189 50.681 49.3536 50.681ZM49.3536 49.9697C49.7071 49.9697 49.9978 49.8791 50.226 49.698C50.4542 49.5168 50.623 49.2785 50.7326 48.9833C50.8423 48.688 50.8971 48.3682 50.8971 48.0237C50.8971 47.6792 50.8423 47.3582 50.7326 47.0607C50.623 46.7632 50.4542 46.5228 50.226 46.3394C49.9978 46.1559 49.7071 46.0642 49.3536 46.0642C49.0002 46.0642 48.7094 46.1559 48.4813 46.3394C48.2531 46.5228 48.0842 46.7632 47.9746 47.0607C47.865 47.3582 47.8102 47.6792 47.8102 48.0237C47.8102 48.3682 47.865 48.688 47.9746 48.9833C48.0842 49.2785 48.2531 49.5168 48.4813 49.698C48.7094 49.8791 49.0002 49.9697 49.3536 49.9697ZM53.8899 50.5737L52.3197 45.42H53.1518L54.2657 49.3658H54.3194L55.4199 45.42H56.2654L57.3525 49.3524H57.4062L58.5202 45.42H59.3523L57.782 50.5737H57.0036L55.8762 46.6145H55.7957L54.6683 50.5737H53.8899ZM62.3846 50.681C61.888 50.681 61.4596 50.5714 61.0995 50.3522C60.7416 50.1308 60.4654 49.8221 60.2708 49.4262C60.0784 49.028 59.9822 48.565 59.9822 48.0371C59.9822 47.5092 60.0784 47.044 60.2708 46.6413C60.4654 46.2365 60.736 45.9211 61.0827 45.6951C61.4317 45.467 61.8388 45.3529 62.304 45.3529C62.5725 45.3529 62.8375 45.3976 63.0992 45.4871C63.3609 45.5766 63.5992 45.722 63.8139 45.9233C64.0286 46.1224 64.1998 46.3863 64.3273 46.7151C64.4548 47.044 64.5185 47.4488 64.5185 47.9297V48.2653H60.5459V47.5808H63.7132C63.7132 47.29 63.6551 47.0305 63.5388 46.8024C63.4247 46.5742 63.2614 46.3942 63.0489 46.2622C62.8386 46.1302 62.5904 46.0642 62.304 46.0642C61.9887 46.0642 61.7158 46.1425 61.4854 46.2991C61.2572 46.4534 61.0816 46.6547 60.9586 46.903C60.8356 47.1513 60.7741 47.4175 60.7741 47.7016V48.1579C60.7741 48.5471 60.8412 48.877 60.9754 49.1477C61.1118 49.4161 61.3008 49.6208 61.5424 49.7617C61.784 49.9004 62.0647 49.9697 62.3846 49.9697C62.5926 49.9697 62.7805 49.9406 62.9483 49.8825C63.1183 49.8221 63.2648 49.7326 63.3878 49.6141C63.5108 49.4933 63.6059 49.3434 63.673 49.1645L64.438 49.3792C64.3575 49.6387 64.2221 49.8668 64.032 50.0637C63.8419 50.2583 63.607 50.4104 63.3274 50.52C63.0478 50.6274 62.7335 50.681 62.3846 50.681ZM65.723 50.5737V45.42H66.488V46.1984H66.5417C66.6357 45.9434 66.8057 45.7365 67.0517 45.5777C67.2978 45.4189 67.5751 45.3395 67.8838 45.3395C67.942 45.3395 68.0147 45.3406 68.1019 45.3428C68.1891 45.3451 68.2551 45.3484 68.2999 45.3529V46.1582C68.273 46.1515 68.2115 46.1414 68.1153 46.128C68.0214 46.1123 67.9218 46.1045 67.8167 46.1045C67.5662 46.1045 67.3425 46.157 67.1457 46.2622C66.9511 46.3651 66.7967 46.5082 66.6826 46.6917C66.5708 46.8728 66.5149 47.0797 66.5149 47.3124V50.5737H65.723ZM71.2424 50.681C70.7458 50.681 70.3175 50.5714 69.9574 50.3522C69.5995 50.1308 69.3232 49.8221 69.1286 49.4262C68.9362 49.028 68.8401 48.565 68.8401 48.0371C68.8401 47.5092 68.9362 47.044 69.1286 46.6413C69.3232 46.2365 69.5939 45.9211 69.9406 45.6951C70.2895 45.467 70.6966 45.3529 71.1619 45.3529C71.4303 45.3529 71.6954 45.3976 71.9571 45.4871C72.2188 45.5766 72.457 45.722 72.6718 45.9233C72.8865 46.1224 73.0576 46.3863 73.1851 46.7151C73.3126 47.044 73.3764 47.4488 73.3764 47.9297V48.2653H69.4037V47.5808H72.5711C72.5711 47.29 72.5129 47.0305 72.3966 46.8024C72.2825 46.5742 72.1193 46.3942 71.9068 46.2622C71.6965 46.1302 71.4482 46.0642 71.1619 46.0642C70.8465 46.0642 70.5736 46.1425 70.3432 46.2991C70.1151 46.4534 69.9395 46.6547 69.8164 46.903C69.6934 47.1513 69.6319 47.4175 69.6319 47.7016V48.1579C69.6319 48.5471 69.699 48.877 69.8332 49.1477C69.9697 49.4161 70.1587 49.6208 70.4003 49.7617C70.6418 49.9004 70.9226 49.9697 71.2424 49.9697C71.4504 49.9697 71.6383 49.9406 71.8061 49.8825C71.9761 49.8221 72.1226 49.7326 72.2456 49.6141C72.3687 49.4933 72.4637 49.3434 72.5308 49.1645L73.2958 49.3792C73.2153 49.6387 73.08 49.8668 72.8898 50.0637C72.6997 50.2583 72.4648 50.4104 72.1852 50.52C71.9056 50.6274 71.5914 50.681 71.2424 50.681ZM76.5269 50.681C76.0975 50.681 75.7183 50.5726 75.3895 50.3556C75.0607 50.1364 74.8035 49.8277 74.6178 49.4295C74.4321 49.0291 74.3393 48.556 74.3393 48.0103C74.3393 47.4689 74.4321 46.9992 74.6178 46.6011C74.8035 46.2029 75.0618 45.8953 75.3929 45.6784C75.7239 45.4614 76.1064 45.3529 76.5404 45.3529C76.8759 45.3529 77.1409 45.4088 77.3355 45.5207C77.5324 45.6303 77.6823 45.7555 77.7851 45.8965C77.8903 46.0351 77.9719 46.1492 78.0301 46.2387H78.0972V43.7021H78.889V50.5737H78.124V49.7818H78.0301C77.9719 49.8758 77.8892 49.9943 77.7818 50.1375C77.6744 50.2784 77.5212 50.4048 77.3221 50.5166C77.123 50.6262 76.858 50.681 76.5269 50.681ZM76.6343 49.9697C76.9519 49.9697 77.2203 49.887 77.4396 49.7214C77.6588 49.5537 77.8254 49.3222 77.9395 49.0269C78.0536 48.7294 78.1106 48.386 78.1106 47.9968C78.1106 47.6121 78.0547 47.2755 77.9428 46.9869C77.831 46.6961 77.6655 46.4702 77.4463 46.3092C77.2271 46.1459 76.9564 46.0642 76.6343 46.0642C76.2988 46.0642 76.0192 46.1503 75.7955 46.3226C75.574 46.4926 75.4074 46.7241 75.2956 47.0171C75.186 47.3079 75.1311 47.6345 75.1311 47.9968C75.1311 48.3637 75.1871 48.697 75.2989 48.9967C75.413 49.2942 75.5808 49.5313 75.8022 49.708C76.0259 49.8825 76.3032 49.9697 76.6343 49.9697ZM83.2139 43.7021H84.2071L86.5423 49.406H86.6229L88.9581 43.7021H89.9513V50.5737H89.1728V45.3529H89.1057L86.9584 50.5737H86.2068L84.0595 45.3529H83.9923V50.5737H83.2139V43.7021ZM93.6731 50.681C93.1765 50.681 92.7481 50.5714 92.388 50.3522C92.0301 50.1308 91.7539 49.8221 91.5593 49.4262C91.3669 49.028 91.2707 48.565 91.2707 48.0371C91.2707 47.5092 91.3669 47.044 91.5593 46.6413C91.7539 46.2365 92.0245 45.9211 92.3712 45.6951C92.7202 45.467 93.1273 45.3529 93.5925 45.3529C93.861 45.3529 94.126 45.3976 94.3877 45.4871C94.6494 45.5766 94.8877 45.722 95.1024 45.9233C95.3171 46.1224 95.4883 46.3863 95.6158 46.7151C95.7433 47.044 95.807 47.4488 95.807 47.9297V48.2653H91.8344V47.5808H95.0017C95.0017 47.29 94.9436 47.0305 94.8273 46.8024C94.7132 46.5742 94.5499 46.3942 94.3374 46.2622C94.1271 46.1302 93.8789 46.0642 93.5925 46.0642C93.2772 46.0642 93.0043 46.1425 92.7739 46.2991C92.5457 46.4534 92.3701 46.6547 92.2471 46.903C92.1241 47.1513 92.0626 47.4175 92.0626 47.7016V48.1579C92.0626 48.5471 92.1297 48.877 92.2639 49.1477C92.4003 49.4161 92.5893 49.6208 92.8309 49.7617C93.0725 49.9004 93.3532 49.9697 93.6731 49.9697C93.8811 49.9697 94.069 49.9406 94.2368 49.8825C94.4068 49.8221 94.5533 49.7326 94.6763 49.6141C94.7993 49.4933 94.8944 49.3434 94.9615 49.1645L95.7265 49.3792C95.646 49.6387 95.5106 49.8668 95.3205 50.0637C95.1304 50.2583 94.8955 50.4104 94.6159 50.52C94.3363 50.6274 94.022 50.681 93.6731 50.681ZM100.662 46.5742L99.9507 46.7755C99.906 46.657 99.84 46.5418 99.7528 46.4299C99.6678 46.3159 99.5515 46.2219 99.4038 46.1481C99.2562 46.0743 99.0672 46.0374 98.8368 46.0374C98.5214 46.0374 98.2586 46.1101 98.0483 46.2555C97.8403 46.3986 97.7363 46.5809 97.7363 46.8024C97.7363 46.9992 97.8078 47.1547 97.951 47.2688C98.0942 47.3828 98.3178 47.4779 98.6221 47.5539L99.3871 47.7418C99.8478 47.8537 100.191 48.0248 100.417 48.2552C100.643 48.4834 100.756 48.7775 100.756 49.1376C100.756 49.4329 100.671 49.6968 100.501 49.9295C100.333 50.1621 100.098 50.3455 99.7964 50.4797C99.4944 50.6139 99.1432 50.681 98.7428 50.681C98.2172 50.681 97.7821 50.567 97.4377 50.3388C97.0932 50.1106 96.8751 49.7774 96.7834 49.3389L97.535 49.151C97.6065 49.4284 97.7419 49.6364 97.9409 49.7751C98.1423 49.9138 98.4051 49.9831 98.7294 49.9831C99.0985 49.9831 99.3915 49.9049 99.6085 49.7483C99.8277 49.5895 99.9373 49.3993 99.9373 49.1779C99.9373 48.9989 99.8747 48.8491 99.7494 48.7283C99.6242 48.6053 99.4318 48.5135 99.1723 48.4532L98.3134 48.2518C97.8414 48.14 97.4947 47.9666 97.2732 47.7318C97.054 47.4947 96.9444 47.1983 96.9444 46.8426C96.9444 46.5518 97.0261 46.2946 97.1894 46.0709C97.3549 45.8472 97.5797 45.6717 97.8638 45.5442C98.1501 45.4167 98.4744 45.3529 98.8368 45.3529C99.3468 45.3529 99.7472 45.4648 100.038 45.6884C100.331 45.9121 100.539 46.2074 100.662 46.5742ZM105.598 46.5742L104.887 46.7755C104.842 46.657 104.776 46.5418 104.689 46.4299C104.604 46.3159 104.488 46.2219 104.34 46.1481C104.193 46.0743 104.004 46.0374 103.773 46.0374C103.458 46.0374 103.195 46.1101 102.985 46.2555C102.777 46.3986 102.673 46.5809 102.673 46.8024C102.673 46.9992 102.744 47.1547 102.887 47.2688C103.031 47.3828 103.254 47.4779 103.558 47.5539L104.323 47.7418C104.784 47.8537 105.128 48.0248 105.354 48.2552C105.579 48.4834 105.692 48.7775 105.692 49.1376C105.692 49.4329 105.607 49.6968 105.437 49.9295C105.27 50.1621 105.035 50.3455 104.733 50.4797C104.431 50.6139 104.08 50.681 103.679 50.681C103.154 50.681 102.719 50.567 102.374 50.3388C102.03 50.1106 101.811 49.7774 101.72 49.3389L102.471 49.151C102.543 49.4284 102.678 49.6364 102.877 49.7751C103.079 49.9138 103.341 49.9831 103.666 49.9831C104.035 49.9831 104.328 49.9049 104.545 49.7483C104.764 49.5895 104.874 49.3993 104.874 49.1779C104.874 48.9989 104.811 48.8491 104.686 48.7283C104.561 48.6053 104.368 48.5135 104.109 48.4532L103.25 48.2518C102.778 48.14 102.431 47.9666 102.21 47.7318C101.99 47.4947 101.881 47.1983 101.881 46.8426C101.881 46.5518 101.962 46.2946 102.126 46.0709C102.291 45.8472 102.516 45.6717 102.8 45.5442C103.086 45.4167 103.411 45.3529 103.773 45.3529C104.283 45.3529 104.684 45.4648 104.974 45.6884C105.267 45.9121 105.475 46.2074 105.598 46.5742ZM108.401 50.6945C108.074 50.6945 107.778 50.6329 107.512 50.5099C107.246 50.3847 107.034 50.2046 106.878 49.9697C106.721 49.7326 106.643 49.4463 106.643 49.1108C106.643 48.8155 106.701 48.5762 106.817 48.3928C106.934 48.2071 107.089 48.0617 107.284 47.9566C107.478 47.8514 107.693 47.7732 107.928 47.7217C108.165 47.668 108.403 47.6255 108.642 47.5942C108.956 47.5539 109.21 47.5238 109.404 47.5036C109.601 47.4813 109.744 47.4443 109.834 47.3929C109.925 47.3415 109.971 47.252 109.971 47.1245V47.0976C109.971 46.7666 109.881 46.5093 109.699 46.3259C109.52 46.1425 109.249 46.0508 108.884 46.0508C108.506 46.0508 108.21 46.1336 107.995 46.2991C107.78 46.4646 107.629 46.6413 107.542 46.8292L106.79 46.5608C106.925 46.2476 107.104 46.0038 107.327 45.8294C107.553 45.6526 107.799 45.5296 108.065 45.4603C108.334 45.3887 108.598 45.3529 108.857 45.3529C109.023 45.3529 109.213 45.373 109.428 45.4133C109.645 45.4513 109.854 45.5307 110.055 45.6515C110.259 45.7723 110.427 45.9546 110.562 46.1984C110.696 46.4422 110.763 46.7688 110.763 47.1782V50.5737H109.971V49.8758H109.931C109.877 49.9876 109.788 50.1073 109.662 50.2348C109.537 50.3623 109.371 50.4708 109.163 50.5602C108.955 50.6497 108.701 50.6945 108.401 50.6945ZM108.522 49.9831C108.835 49.9831 109.099 49.9216 109.314 49.7986C109.531 49.6756 109.694 49.5168 109.803 49.3222C109.915 49.1276 109.971 48.9229 109.971 48.7082V47.9834C109.938 48.0237 109.864 48.0606 109.75 48.0941C109.638 48.1255 109.508 48.1534 109.361 48.178C109.215 48.2004 109.073 48.2205 108.934 48.2384C108.798 48.2541 108.687 48.2675 108.602 48.2787C108.396 48.3055 108.204 48.3491 108.025 48.4095C107.848 48.4677 107.705 48.556 107.596 48.6746C107.488 48.7909 107.435 48.9497 107.435 49.151C107.435 49.4262 107.536 49.6342 107.74 49.7751C107.946 49.9138 108.206 49.9831 108.522 49.9831ZM114.289 52.6137C113.906 52.6137 113.577 52.5644 113.302 52.466C113.027 52.3698 112.798 52.2423 112.614 52.0835C112.433 51.927 112.289 51.7592 112.181 51.5802L112.812 51.1374C112.884 51.2313 112.974 51.3387 113.084 51.4595C113.194 51.5825 113.343 51.6887 113.534 51.7782C113.726 51.8699 113.978 51.9158 114.289 51.9158C114.705 51.9158 115.048 51.8151 115.319 51.6138C115.589 51.4125 115.725 51.0971 115.725 50.6676V49.6208H115.657C115.599 49.7147 115.517 49.831 115.409 49.9697C115.304 50.1062 115.152 50.2281 114.953 50.3354C114.756 50.4406 114.49 50.4931 114.154 50.4931C113.738 50.4931 113.365 50.3947 113.034 50.1979C112.705 50.001 112.444 49.7147 112.252 49.3389C112.062 48.9632 111.967 48.5068 111.967 47.97C111.967 47.4421 112.06 46.9824 112.245 46.591C112.431 46.1973 112.689 45.8931 113.02 45.6784C113.351 45.4614 113.734 45.3529 114.168 45.3529C114.503 45.3529 114.769 45.4088 114.966 45.5207C115.165 45.6303 115.317 45.7555 115.423 45.8965C115.53 46.0351 115.613 46.1492 115.671 46.2387H115.751V45.42H116.516V50.7213C116.516 51.1642 116.416 51.5243 116.214 51.8017C116.015 52.0813 115.747 52.286 115.409 52.4157C115.074 52.5477 114.7 52.6137 114.289 52.6137ZM114.262 49.7818C114.579 49.7818 114.848 49.7091 115.067 49.5637C115.286 49.4183 115.453 49.2092 115.567 48.9363C115.681 48.6634 115.738 48.3368 115.738 47.9566C115.738 47.5853 115.682 47.2576 115.57 46.9735C115.458 46.6894 115.293 46.4668 115.074 46.3058C114.854 46.1447 114.584 46.0642 114.262 46.0642C113.926 46.0642 113.647 46.1492 113.423 46.3192C113.201 46.4892 113.035 46.7174 112.923 47.0037C112.813 47.29 112.759 47.6076 112.759 47.9566C112.759 48.3145 112.814 48.631 112.926 48.9061C113.04 49.179 113.208 49.3937 113.43 49.5503C113.653 49.7047 113.931 49.7818 114.262 49.7818ZM117.966 50.5737V45.42H118.758V50.5737H117.966ZM118.369 44.5611C118.214 44.5611 118.081 44.5085 117.969 44.4034C117.86 44.2982 117.805 44.1719 117.805 44.0242C117.805 43.8766 117.86 43.7502 117.969 43.6451C118.081 43.54 118.214 43.4874 118.369 43.4874C118.523 43.4874 118.655 43.54 118.764 43.6451C118.876 43.7502 118.932 43.8766 118.932 44.0242C118.932 44.1719 118.876 44.2982 118.764 44.4034C118.655 44.5085 118.523 44.5611 118.369 44.5611ZM121 47.4734V50.5737H120.208V45.42H120.973V46.2253H121.04C121.161 45.9636 121.344 45.7533 121.59 45.5945C121.836 45.4334 122.154 45.3529 122.543 45.3529C122.892 45.3529 123.198 45.4245 123.459 45.5676C123.721 45.7086 123.925 45.9233 124.07 46.2119C124.215 46.4982 124.288 46.8605 124.288 47.299V50.5737H123.496V47.3526C123.496 46.9478 123.391 46.6324 123.181 46.4065C122.971 46.1783 122.682 46.0642 122.315 46.0642C122.062 46.0642 121.836 46.119 121.637 46.2286C121.441 46.3382 121.285 46.4982 121.171 46.7084C121.057 46.9187 121 47.1737 121 47.4734ZM127.815 52.6137C127.433 52.6137 127.104 52.5644 126.829 52.466C126.554 52.3698 126.324 52.2423 126.141 52.0835C125.96 51.927 125.815 51.7592 125.708 51.5802L126.339 51.1374C126.41 51.2313 126.501 51.3387 126.611 51.4595C126.72 51.5825 126.87 51.6887 127.06 51.7782C127.253 51.8699 127.504 51.9158 127.815 51.9158C128.231 51.9158 128.575 51.8151 128.845 51.6138C129.116 51.4125 129.251 51.0971 129.251 50.6676V49.6208H129.184C129.126 49.7147 129.043 49.831 128.936 49.9697C128.831 50.1062 128.679 50.2281 128.48 50.3354C128.283 50.4406 128.017 50.4931 127.681 50.4931C127.265 50.4931 126.891 50.3947 126.56 50.1979C126.232 50.001 125.971 49.7147 125.779 49.3389C125.588 48.9632 125.493 48.5068 125.493 47.97C125.493 47.4421 125.586 46.9824 125.772 46.591C125.958 46.1973 126.216 45.8931 126.547 45.6784C126.878 45.4614 127.26 45.3529 127.694 45.3529C128.03 45.3529 128.296 45.4088 128.493 45.5207C128.692 45.6303 128.844 45.7555 128.949 45.8965C129.057 46.0351 129.139 46.1492 129.198 46.2387H129.278V45.42H130.043V50.7213C130.043 51.1642 129.942 51.5243 129.741 51.8017C129.542 52.0813 129.274 52.286 128.936 52.4157C128.6 52.5477 128.227 52.6137 127.815 52.6137ZM127.788 49.7818C128.106 49.7818 128.374 49.7091 128.594 49.5637C128.813 49.4183 128.979 49.2092 129.094 48.9363C129.208 48.6634 129.265 48.3368 129.265 47.9566C129.265 47.5853 129.209 47.2576 129.097 46.9735C128.985 46.6894 128.82 46.4668 128.6 46.3058C128.381 46.1447 128.11 46.0642 127.788 46.0642C127.453 46.0642 127.173 46.1492 126.95 46.3192C126.728 46.4892 126.561 46.7174 126.45 47.0037C126.34 47.29 126.285 47.6076 126.285 47.9566C126.285 48.3145 126.341 48.631 126.453 48.9061C126.567 49.179 126.735 49.3937 126.956 49.5503C127.18 49.7047 127.457 49.7818 127.788 49.7818Z" fill="#002A96"/>
</g>
<defs>
<clipPath id="clip0_108_773">
<rect width="158.144" height="57" fill="white" transform="translate(0.860001)"/>
</clipPath>
</defs>
</svg>
