<svg width="132" height="37" viewBox="0 0 132 37" fill="none" xmlns="http://www.w3.org/2000/svg">
<path d="M13.179 34.5737H12.2557L14.9261 27.3009H15.8352L18.5057 34.5737H17.5824L15.4091 28.4515H15.3523L13.179 34.5737ZM13.5199 31.7328H17.2415V32.514H13.5199V31.7328ZM20.5192 27.3009V34.5737H19.6385V27.3009H20.5192ZM25.0975 34.5737V27.3009H27.5549C28.1254 27.3009 28.5918 27.4039 28.954 27.6099C29.3186 27.8135 29.5885 28.0893 29.7637 28.4373C29.9389 28.7853 30.0265 29.1736 30.0265 29.6021C30.0265 30.0306 29.9389 30.42 29.7637 30.7704C29.5909 31.1208 29.3233 31.4001 28.9611 31.6085C28.5989 31.8144 28.1349 31.9174 27.5691 31.9174H25.8077V31.1362H27.5407C27.9313 31.1362 28.245 31.0687 28.4817 30.9338C28.7185 30.7988 28.8901 30.6165 28.9966 30.3869C29.1055 30.1549 29.16 29.8933 29.16 29.6021C29.16 29.3109 29.1055 29.0505 28.9966 28.8208C28.8901 28.5912 28.7173 28.4113 28.4782 28.2811C28.2391 28.1485 27.9218 28.0822 27.5265 28.0822H25.9782V34.5737H25.0975ZM33.4888 34.6873C32.9964 34.6873 32.5643 34.5701 32.1926 34.3357C31.8233 34.1014 31.5345 33.7735 31.3262 33.3521C31.1202 32.9307 31.0172 32.4383 31.0172 31.8748C31.0172 31.3066 31.1202 30.8106 31.3262 30.3869C31.5345 29.9631 31.8233 29.634 32.1926 29.3997C32.5643 29.1653 32.9964 29.0481 33.4888 29.0481C33.9812 29.0481 34.4121 29.1653 34.7814 29.3997C35.1531 29.634 35.4419 29.9631 35.6479 30.3869C35.8562 30.8106 35.9604 31.3066 35.9604 31.8748C35.9604 32.4383 35.8562 32.9307 35.6479 33.3521C35.4419 33.7735 35.1531 34.1014 34.7814 34.3357C34.4121 34.5701 33.9812 34.6873 33.4888 34.6873ZM33.4888 33.9345C33.8629 33.9345 34.1706 33.8386 34.4121 33.6468C34.6536 33.4551 34.8323 33.2029 34.9483 32.8904C35.0643 32.5779 35.1223 32.2394 35.1223 31.8748C35.1223 31.5102 35.0643 31.1705 34.9483 30.8556C34.8323 30.5408 34.6536 30.2863 34.4121 30.0921C34.1706 29.898 33.8629 29.8009 33.4888 29.8009C33.1148 29.8009 32.807 29.898 32.5655 30.0921C32.324 30.2863 32.1453 30.5408 32.0293 30.8556C31.9133 31.1705 31.8553 31.5102 31.8553 31.8748C31.8553 32.2394 31.9133 32.5779 32.0293 32.8904C32.1453 33.2029 32.324 33.4551 32.5655 33.6468C32.807 33.8386 33.1148 33.9345 33.4888 33.9345ZM38.29 34.5737L36.628 29.1191H37.5087L38.6877 33.2953H38.7445L39.9093 29.1191H40.8042L41.9547 33.2811H42.0115L43.1905 29.1191H44.0712L42.4093 34.5737H41.5854L40.3922 30.3833H40.307L39.1138 34.5737H38.29ZM47.2805 34.6873C46.755 34.6873 46.3016 34.5713 45.9205 34.3393C45.5417 34.1049 45.2493 33.7782 45.0433 33.3592C44.8397 32.9378 44.7379 32.4477 44.7379 31.889C44.7379 31.3303 44.8397 30.8379 45.0433 30.4117C45.2493 29.9832 45.5357 29.6494 45.9027 29.4103C46.272 29.1688 46.7029 29.0481 47.1953 29.0481C47.4794 29.0481 47.7599 29.0954 48.0369 29.1901C48.3139 29.2848 48.5661 29.4387 48.7933 29.6518C49.0206 29.8625 49.2017 30.1419 49.3366 30.4899C49.4716 30.8379 49.5391 31.2664 49.5391 31.7754V32.1305H45.3345V31.4061H48.6868C48.6868 31.0983 48.6252 30.8237 48.5021 30.5822C48.3814 30.3407 48.2086 30.1501 47.9837 30.0105C47.7611 29.8708 47.4983 29.8009 47.1953 29.8009C46.8615 29.8009 46.5727 29.8838 46.3288 30.0495C46.0874 30.2129 45.9015 30.4259 45.7713 30.6887C45.6411 30.9515 45.576 31.2332 45.576 31.5339V32.0169C45.576 32.4288 45.647 32.778 45.7891 33.0644C45.9335 33.3485 46.1335 33.5651 46.3892 33.7143C46.6449 33.8611 46.942 33.9345 47.2805 33.9345C47.5007 33.9345 47.6996 33.9037 47.8771 33.8421C48.0571 33.7782 48.2121 33.6835 48.3423 33.558C48.4725 33.4302 48.5732 33.2716 48.6442 33.0822L49.4538 33.3095C49.3686 33.5841 49.2254 33.8256 49.0241 34.0339C48.8229 34.2399 48.5743 34.4008 48.2784 34.5169C47.9825 34.6305 47.6499 34.6873 47.2805 34.6873ZM50.8139 34.5737V29.1191H51.6236V29.943H51.6804C51.7798 29.6731 51.9598 29.4541 52.2202 29.286C52.4806 29.1179 52.7741 29.0339 53.1009 29.0339C53.1624 29.0339 53.2393 29.0351 53.3317 29.0374C53.424 29.0398 53.4938 29.0434 53.5412 29.0481V29.9004C53.5128 29.8933 53.4477 29.8826 53.3459 29.8684C53.2464 29.8518 53.1411 29.8436 53.0298 29.8436C52.7647 29.8436 52.5279 29.8992 52.3196 30.0105C52.1136 30.1194 51.9503 30.2709 51.8295 30.465C51.7112 30.6568 51.652 30.8758 51.652 31.122V34.5737H50.8139ZM56.6555 34.6873C56.13 34.6873 55.6766 34.5713 55.2955 34.3393C54.9167 34.1049 54.6243 33.7782 54.4183 33.3592C54.2147 32.9378 54.1129 32.4477 54.1129 31.889C54.1129 31.3303 54.2147 30.8379 54.4183 30.4117C54.6243 29.9832 54.9107 29.6494 55.2777 29.4103C55.647 29.1688 56.0779 29.0481 56.5703 29.0481C56.8544 29.0481 57.1349 29.0954 57.4119 29.1901C57.6889 29.2848 57.9411 29.4387 58.1683 29.6518C58.3956 29.8625 58.5767 30.1419 58.7116 30.4899C58.8466 30.8379 58.9141 31.2664 58.9141 31.7754V32.1305H54.7095V31.4061H58.0618C58.0618 31.0983 58.0002 30.8237 57.8771 30.5822C57.7564 30.3407 57.5836 30.1501 57.3587 30.0105C57.1361 29.8708 56.8733 29.8009 56.5703 29.8009C56.2365 29.8009 55.9477 29.8838 55.7038 30.0495C55.4624 30.2129 55.2765 30.4259 55.1463 30.6887C55.0161 30.9515 54.951 31.2332 54.951 31.5339V32.0169C54.951 32.4288 55.022 32.778 55.1641 33.0644C55.3085 33.3485 55.5085 33.5651 55.7642 33.7143C56.0199 33.8611 56.317 33.9345 56.6555 33.9345C56.8757 33.9345 57.0746 33.9037 57.2521 33.8421C57.4321 33.7782 57.5871 33.6835 57.7173 33.558C57.8475 33.4302 57.9482 33.2716 58.0192 33.0822L58.8288 33.3095C58.7436 33.5841 58.6004 33.8256 58.3991 34.0339C58.1979 34.2399 57.9493 34.4008 57.6534 34.5169C57.3575 34.6305 57.0249 34.6873 56.6555 34.6873ZM62.2486 34.6873C61.794 34.6873 61.3928 34.5725 61.0447 34.3428C60.6967 34.1108 60.4245 33.7841 60.228 33.3627C60.0315 32.939 59.9332 32.4383 59.9332 31.8606C59.9332 31.2877 60.0315 30.7905 60.228 30.3691C60.4245 29.9477 60.6979 29.6222 61.0483 29.3926C61.3987 29.1629 61.8035 29.0481 62.2628 29.0481C62.6179 29.0481 62.8984 29.1073 63.1044 29.2257C63.3127 29.3417 63.4714 29.4742 63.5803 29.6234C63.6915 29.7702 63.7779 29.8909 63.8395 29.9856H63.9105V27.3009H64.7486V34.5737H63.9389V33.7356H63.8395C63.7779 33.835 63.6903 33.9605 63.5767 34.112C63.4631 34.2612 63.3009 34.3949 63.0902 34.5133C62.8795 34.6293 62.599 34.6873 62.2486 34.6873ZM62.3622 33.9345C62.6984 33.9345 62.9825 33.8469 63.2145 33.6717C63.4465 33.4941 63.6229 33.2491 63.7436 32.9366C63.8643 32.6217 63.9247 32.2583 63.9247 31.8464C63.9247 31.4392 63.8655 31.0829 63.7472 30.7775C63.6288 30.4697 63.4536 30.2306 63.2216 30.0602C62.9896 29.8874 62.7031 29.8009 62.3622 29.8009C62.0071 29.8009 61.7112 29.8921 61.4744 30.0744C61.2401 30.2543 61.0637 30.4993 60.9453 30.8095C60.8293 31.1172 60.7713 31.4629 60.7713 31.8464C60.7713 32.2347 60.8305 32.5874 60.9489 32.9046C61.0696 33.2195 61.2472 33.4704 61.4815 33.6575C61.7183 33.8421 62.0118 33.9345 62.3622 33.9345ZM69.326 27.3009H70.3771L72.8487 33.3379H72.9339L75.4055 27.3009H76.4567V34.5737H75.6328V29.0481H75.5618L73.2891 34.5737H72.4936L70.2209 29.0481H70.1499V34.5737H69.326V27.3009ZM80.3958 34.6873C79.8702 34.6873 79.4168 34.5713 79.0357 34.3393C78.6569 34.1049 78.3645 33.7782 78.1586 33.3592C77.955 32.9378 77.8532 32.4477 77.8532 31.889C77.8532 31.3303 77.955 30.8379 78.1586 30.4117C78.3645 29.9832 78.651 29.6494 79.0179 29.4103C79.3873 29.1688 79.8181 29.0481 80.3105 29.0481C80.5946 29.0481 80.8752 29.0954 81.1522 29.1901C81.4292 29.2848 81.6813 29.4387 81.9086 29.6518C82.1358 29.8625 82.3169 30.1419 82.4519 30.4899C82.5868 30.8379 82.6543 31.2664 82.6543 31.7754V32.1305H78.4498V31.4061H81.802C81.802 31.0983 81.7405 30.8237 81.6174 30.5822C81.4966 30.3407 81.3238 30.1501 81.0989 30.0105C80.8764 29.8708 80.6136 29.8009 80.3105 29.8009C79.9767 29.8009 79.6879 29.8838 79.4441 30.0495C79.2026 30.2129 79.0167 30.4259 78.8865 30.6887C78.7563 30.9515 78.6912 31.2332 78.6912 31.5339V32.0169C78.6912 32.4288 78.7623 32.778 78.9043 33.0644C79.0487 33.3485 79.2488 33.5651 79.5044 33.7143C79.7601 33.8611 80.0572 33.9345 80.3958 33.9345C80.6159 33.9345 80.8148 33.9037 80.9924 33.8421C81.1723 33.7782 81.3274 33.6835 81.4576 33.558C81.5878 33.4302 81.6884 33.2716 81.7594 33.0822L82.5691 33.3095C82.4838 33.5841 82.3406 33.8256 82.1394 34.0339C81.9382 34.2399 81.6896 34.4008 81.3936 34.5169C81.0977 34.6305 80.7651 34.6873 80.3958 34.6873ZM87.7928 30.3407L87.04 30.5538C86.9926 30.4283 86.9228 30.3064 86.8304 30.188C86.7405 30.0673 86.6174 29.9678 86.4611 29.8897C86.3049 29.8116 86.1048 29.7725 85.861 29.7725C85.5272 29.7725 85.249 29.8495 85.0265 30.0034C84.8063 30.1549 84.6962 30.3478 84.6962 30.5822C84.6962 30.7905 84.772 30.9551 84.9235 31.0758C85.075 31.1965 85.3117 31.2972 85.6337 31.3776L86.4434 31.5765C86.931 31.6949 87.2944 31.876 87.5336 32.1198C87.7727 32.3613 87.8922 32.6726 87.8922 33.0538C87.8922 33.3663 87.8023 33.6456 87.6223 33.8919C87.4448 34.1381 87.1962 34.3322 86.8766 34.4742C86.557 34.6163 86.1853 34.6873 85.7615 34.6873C85.2052 34.6873 84.7447 34.5666 84.3801 34.3251C84.0156 34.0836 83.7847 33.7309 83.6877 33.2669L84.4831 33.068C84.5589 33.3615 84.7021 33.5817 84.9128 33.7285C85.1259 33.8753 85.4041 33.9487 85.7473 33.9487C86.138 33.9487 86.4481 33.8658 86.6777 33.7001C86.9097 33.532 87.0257 33.3308 87.0257 33.0964C87.0257 32.907 86.9595 32.7484 86.8269 32.6205C86.6943 32.4903 86.4907 32.3933 86.2161 32.3294L85.307 32.1163C84.8075 31.9979 84.4405 31.8144 84.2061 31.5659C83.9741 31.3149 83.8581 31.0012 83.8581 30.6248C83.8581 30.317 83.9445 30.0448 84.1174 29.808C84.2926 29.5713 84.5305 29.3855 84.8311 29.2505C85.1342 29.1156 85.4775 29.0481 85.861 29.0481C86.4007 29.0481 86.8245 29.1665 87.1323 29.4032C87.4424 29.64 87.6626 29.9525 87.7928 30.3407ZM93.0174 30.3407L92.2646 30.5538C92.2172 30.4283 92.1474 30.3064 92.055 30.188C91.9651 30.0673 91.842 29.9678 91.6857 29.8897C91.5295 29.8116 91.3294 29.7725 91.0856 29.7725C90.7518 29.7725 90.4736 29.8495 90.2511 30.0034C90.0309 30.1549 89.9208 30.3478 89.9208 30.5822C89.9208 30.7905 89.9966 30.9551 90.1481 31.0758C90.2996 31.1965 90.5363 31.2972 90.8583 31.3776L91.668 31.5765C92.1557 31.6949 92.5191 31.876 92.7582 32.1198C92.9973 32.3613 93.1168 32.6726 93.1168 33.0538C93.1168 33.3663 93.0269 33.6456 92.8469 33.8919C92.6694 34.1381 92.4208 34.3322 92.1012 34.4742C91.7816 34.6163 91.4099 34.6873 90.9862 34.6873C90.4298 34.6873 89.9693 34.5666 89.6048 34.3251C89.2402 34.0836 89.0094 33.7309 88.9123 33.2669L89.7077 33.068C89.7835 33.3615 89.9267 33.5817 90.1374 33.7285C90.3505 33.8753 90.6287 33.9487 90.9719 33.9487C91.3626 33.9487 91.6727 33.8658 91.9023 33.7001C92.1344 33.532 92.2504 33.3308 92.2504 33.0964C92.2504 32.907 92.1841 32.7484 92.0515 32.6205C91.9189 32.4903 91.7153 32.3933 91.4407 32.3294L90.5316 32.1163C90.0321 31.9979 89.6651 31.8144 89.4308 31.5659C89.1987 31.3149 89.0827 31.0012 89.0827 30.6248C89.0827 30.317 89.1692 30.0448 89.342 29.808C89.5172 29.5713 89.7551 29.3855 90.0558 29.2505C90.3588 29.1156 90.7021 29.0481 91.0856 29.0481C91.6254 29.0481 92.0491 29.1665 92.3569 29.4032C92.667 29.64 92.8872 29.9525 93.0174 30.3407ZM95.9835 34.7015C95.6378 34.7015 95.3242 34.6364 95.0424 34.5062C94.7607 34.3736 94.537 34.183 94.3713 33.9345C94.2056 33.6835 94.1227 33.3805 94.1227 33.0254C94.1227 32.7129 94.1842 32.4596 94.3074 32.2654C94.4305 32.0689 94.595 31.9151 94.801 31.8038C95.0069 31.6925 95.2342 31.6097 95.4828 31.5552C95.7337 31.4984 95.9859 31.4534 96.2392 31.4203C96.5706 31.3776 96.8393 31.3457 97.0453 31.3244C97.2536 31.3007 97.4051 31.2616 97.4998 31.2072C97.5969 31.1527 97.6454 31.058 97.6454 30.9231V30.8947C97.6454 30.5443 97.5495 30.2721 97.3578 30.0779C97.1684 29.8838 96.8807 29.7867 96.4949 29.7867C96.0948 29.7867 95.7811 29.8743 95.5538 30.0495C95.3265 30.2247 95.1667 30.4117 95.0744 30.6106L94.2789 30.3265C94.421 29.9951 94.6104 29.737 94.8471 29.5524C95.0862 29.3653 95.3467 29.2351 95.6284 29.1617C95.9125 29.086 96.1918 29.0481 96.4664 29.0481C96.6416 29.0481 96.8429 29.0694 97.0701 29.112C97.2998 29.1523 97.5211 29.2363 97.7342 29.3642C97.9496 29.492 98.1284 29.6849 98.2704 29.943C98.4125 30.201 98.4835 30.5467 98.4835 30.9799V34.5737H97.6454V33.835H97.6028C97.546 33.9534 97.4513 34.0801 97.3187 34.215C97.1861 34.3499 97.0098 34.4648 96.7896 34.5595C96.5694 34.6542 96.3007 34.7015 95.9835 34.7015ZM96.1113 33.9487C96.4428 33.9487 96.7221 33.8836 96.9494 33.7534C97.179 33.6231 97.3519 33.4551 97.4679 33.2491C97.5862 33.0431 97.6454 32.8265 97.6454 32.5992V31.8322C97.6099 31.8748 97.5318 31.9139 97.411 31.9494C97.2927 31.9825 97.1554 32.0121 96.9991 32.0382C96.8452 32.0618 96.6949 32.0831 96.5481 32.1021C96.4037 32.1187 96.2865 32.1329 96.1966 32.1447C95.9788 32.1731 95.7752 32.2193 95.5858 32.2832C95.3987 32.3447 95.2472 32.4383 95.1312 32.5637C95.0176 32.6868 94.9608 32.8549 94.9608 33.068C94.9608 33.3592 95.0685 33.5794 95.2839 33.7285C95.5017 33.8753 95.7775 33.9487 96.1113 33.9487ZM102.215 36.7328C101.81 36.7328 101.462 36.6807 101.171 36.5765C100.88 36.4747 100.637 36.3398 100.443 36.1717C100.251 36.006 100.098 35.8284 99.9847 35.639L100.652 35.1703C100.728 35.2697 100.824 35.3833 100.94 35.5112C101.056 35.6414 101.215 35.7538 101.416 35.8485C101.619 35.9456 101.886 35.9941 102.215 35.9941C102.655 35.9941 103.019 35.8876 103.305 35.6745C103.592 35.4615 103.735 35.1276 103.735 34.6731V33.5651H103.664C103.602 33.6646 103.515 33.7877 103.401 33.9345C103.29 34.0789 103.129 34.2079 102.918 34.3215C102.71 34.4328 102.428 34.4884 102.073 34.4884C101.632 34.4884 101.237 34.3843 100.887 34.1759C100.539 33.9676 100.263 33.6646 100.059 33.2669C99.8581 32.8691 99.7575 32.3862 99.7575 31.818C99.7575 31.2593 99.8557 30.7728 100.052 30.3585C100.249 29.9418 100.522 29.6198 100.873 29.3926C101.223 29.1629 101.628 29.0481 102.087 29.0481C102.442 29.0481 102.724 29.1073 102.932 29.2257C103.143 29.3417 103.304 29.4742 103.415 29.6234C103.529 29.7702 103.616 29.8909 103.678 29.9856H103.763V29.1191H104.573V34.7299C104.573 35.1987 104.466 35.5798 104.253 35.8734C104.042 36.1693 103.758 36.3859 103.401 36.5232C103.046 36.6629 102.65 36.7328 102.215 36.7328ZM102.186 33.7356C102.523 33.7356 102.807 33.6587 103.039 33.5048C103.271 33.3509 103.447 33.1295 103.568 32.8407C103.689 32.5519 103.749 32.2062 103.749 31.8038C103.749 31.4108 103.69 31.064 103.571 30.7633C103.453 30.4626 103.278 30.2271 103.046 30.0566C102.814 29.8862 102.527 29.8009 102.186 29.8009C101.831 29.8009 101.535 29.8909 101.299 30.0708C101.064 30.2508 100.888 30.4922 100.77 30.7953C100.654 31.0983 100.596 31.4345 100.596 31.8038C100.596 32.1826 100.655 32.5176 100.773 32.8088C100.894 33.0976 101.071 33.3249 101.306 33.4906C101.542 33.6539 101.836 33.7356 102.186 33.7356ZM106.107 34.5737V29.1191H106.945V34.5737H106.107ZM106.533 28.21C106.37 28.21 106.229 28.1544 106.11 28.0431C105.994 27.9319 105.936 27.7981 105.936 27.6419C105.936 27.4856 105.994 27.3518 106.11 27.2406C106.229 27.1293 106.37 27.0737 106.533 27.0737C106.696 27.0737 106.836 27.1293 106.952 27.2406C107.07 27.3518 107.13 27.4856 107.13 27.6419C107.13 27.7981 107.07 27.9319 106.952 28.0431C106.836 28.1544 106.696 28.21 106.533 28.21ZM109.318 31.2924V34.5737H108.48V29.1191H109.29V29.9714H109.361C109.488 29.6944 109.683 29.4719 109.943 29.3038C110.203 29.1333 110.54 29.0481 110.952 29.0481C111.321 29.0481 111.644 29.1239 111.921 29.2754C112.198 29.4245 112.413 29.6518 112.567 29.9572C112.721 30.2602 112.798 30.6437 112.798 31.1078V34.5737H111.96V31.1646C111.96 30.7361 111.849 30.4023 111.626 30.1632C111.404 29.9217 111.098 29.8009 110.71 29.8009C110.443 29.8009 110.203 29.8589 109.993 29.9749C109.784 30.091 109.62 30.2602 109.499 30.4828C109.378 30.7053 109.318 30.9752 109.318 31.2924ZM116.531 36.7328C116.126 36.7328 115.778 36.6807 115.487 36.5765C115.196 36.4747 114.953 36.3398 114.759 36.1717C114.567 36.006 114.415 35.8284 114.301 35.639L114.969 35.1703C115.045 35.2697 115.14 35.3833 115.256 35.5112C115.372 35.6414 115.531 35.7538 115.732 35.8485C115.936 35.9456 116.202 35.9941 116.531 35.9941C116.972 35.9941 117.335 35.8876 117.621 35.6745C117.908 35.4615 118.051 35.1276 118.051 34.6731V33.5651H117.98C117.919 33.6646 117.831 33.7877 117.717 33.9345C117.606 34.0789 117.445 34.2079 117.234 34.3215C117.026 34.4328 116.744 34.4884 116.389 34.4884C115.949 34.4884 115.554 34.3843 115.203 34.1759C114.855 33.9676 114.579 33.6646 114.376 33.2669C114.174 32.8691 114.074 32.3862 114.074 31.818C114.074 31.2593 114.172 30.7728 114.369 30.3585C114.565 29.9418 114.839 29.6198 115.189 29.3926C115.539 29.1629 115.944 29.0481 116.403 29.0481C116.759 29.0481 117.04 29.1073 117.249 29.2257C117.459 29.3417 117.62 29.4742 117.732 29.6234C117.845 29.7702 117.933 29.8909 117.994 29.9856H118.08V29.1191H118.889V34.7299C118.889 35.1987 118.783 35.5798 118.57 35.8734C118.359 36.1693 118.075 36.3859 117.717 36.5232C117.362 36.6629 116.967 36.7328 116.531 36.7328ZM116.503 33.7356C116.839 33.7356 117.123 33.6587 117.355 33.5048C117.587 33.3509 117.763 33.1295 117.884 32.8407C118.005 32.5519 118.065 32.2062 118.065 31.8038C118.065 31.4108 118.006 31.064 117.888 30.7633C117.769 30.4626 117.594 30.2271 117.362 30.0566C117.13 29.8862 116.844 29.8009 116.503 29.8009C116.148 29.8009 115.852 29.8909 115.615 30.0708C115.381 30.2508 115.204 30.4922 115.086 30.7953C114.97 31.0983 114.912 31.4345 114.912 31.8038C114.912 32.1826 114.971 32.5176 115.089 32.8088C115.21 33.0976 115.388 33.3249 115.622 33.4906C115.859 33.6539 116.152 33.7356 116.503 33.7356Z" fill="white"/>
<g clip-path="url(#clip0_419_15051)">
<path d="M19.7072 0.334423L20.6067 18.3088H15.422L14.7647 7.0876L12.5395 18.3088H7.8832L5.39543 7.0296L4.89535 18.3088H0L0.662045 0.334423H8.20086L10.4763 10.8336L12.3005 0.334423H19.7072ZM37.378 5.32756C37.7664 6.48312 37.9598 7.80505 37.9598 9.29491C37.9598 11.2977 37.6249 12.9966 36.955 14.3918C36.2851 15.7871 35.3368 16.8434 34.1118 17.5624C32.8852 18.2813 31.4353 18.6401 29.7606 18.6401C28.5261 18.6401 27.397 18.434 26.3748 18.0234C25.3511 17.6127 24.4783 17.0128 23.7565 16.2267C23.0332 15.439 22.4828 14.4636 22.1038 13.2989C21.7248 12.1342 21.5345 10.8 21.5345 9.29338C21.5345 7.29063 21.8695 5.60081 22.5394 4.22239C23.2093 2.84397 24.1575 1.79527 25.3826 1.0763C26.6076 0.357321 28.0496 -0.00140381 29.7071 -0.00140381C30.9761 -0.00140381 32.1178 0.204672 33.1321 0.615297C34.1464 1.02592 35.0097 1.62583 35.7237 2.41197C36.4376 3.19964 36.9896 4.17049 37.3764 5.32604L37.378 5.32756ZM32.3254 9.29491C32.3254 8.50724 32.2641 7.82337 32.1398 7.24025C32.0156 6.65866 31.8442 6.17476 31.624 5.79009C31.4039 5.40542 31.1381 5.12301 30.8299 4.94289C30.5217 4.76276 30.1553 4.6727 29.7322 4.6727C29.2039 4.6727 28.74 4.83604 28.3437 5.16118C27.9474 5.48632 27.6518 5.99159 27.4568 6.67545C27.2633 7.36085 27.1658 8.234 27.1658 9.29491C27.1658 10.0994 27.2193 10.797 27.3247 11.3877C27.43 11.9785 27.5983 12.4624 27.8279 12.8379C28.0575 13.2149 28.3311 13.4973 28.6472 13.6851C28.9648 13.8744 29.3265 13.9675 29.7322 13.9675C30.2779 13.9675 30.7465 13.8011 31.135 13.4668C31.5234 13.1325 31.8174 12.615 32.0219 11.9128C32.2247 11.2106 32.3254 10.3375 32.3254 9.29338V9.29491ZM48.5934 9.10715L44.4136 0.334423H38.9647V18.3088H43.9119V8.73621L48.356 18.3088H53.514V0.334423H48.5934V9.10715ZM76.632 0.334423L74.5956 7.0357L72.6912 0.334423H54.4653V4.95663H57.9831V18.3088H63.539V4.95663H67.0568V1.01371L71.6596 11.7648V18.3088H77.1353V11.893L82.1611 0.334423H76.632ZM95.1756 7.0357H91.8685V0.334423H86.3661V18.3088H91.8685V11.6075H95.1756V18.3088H100.651V0.334423H95.1756V7.0357ZM110.835 11.8121C110.835 12.2227 110.808 12.5784 110.756 12.8776C110.703 13.1768 110.61 13.4256 110.478 13.6225C110.346 13.8194 110.178 13.966 109.975 14.0591C109.772 14.1537 109.513 14.201 109.195 14.201C108.806 14.201 108.489 14.1156 108.242 13.9446C107.995 13.7736 107.814 13.508 107.699 13.1493C107.585 12.7906 107.528 12.3448 107.528 11.8136V0.334423H102.052V11.4015C102.052 13.0623 102.331 14.4315 102.886 15.5092C103.441 16.5869 104.248 17.3838 105.306 17.8967C106.364 18.4096 107.651 18.6675 109.168 18.6675C110.686 18.6675 112.003 18.4111 113.07 17.8967C114.136 17.3838 114.943 16.5869 115.49 15.5092C116.035 14.43 116.309 13.0608 116.309 11.4015V0.334423H110.833V11.8121H110.835ZM131.39 13.276C131.39 14.2865 131.174 15.1673 130.742 15.9214C130.31 16.6755 129.605 17.2616 128.625 17.6799C127.647 18.0997 126.328 18.3088 124.67 18.3088H117.713V0.334423H125.174C126.496 0.334423 127.584 0.50997 128.44 0.861062C129.295 1.21215 129.931 1.72505 130.344 2.40129C130.758 3.07752 130.965 3.88656 130.965 4.8284C130.965 5.87252 130.709 6.73346 130.198 7.40969C129.687 8.08593 128.981 8.58204 128.081 8.89954C127.924 8.9545 127.762 9.00335 127.597 9.04914C127.852 9.10104 128.092 9.15752 128.319 9.22011C129.36 9.51167 130.13 9.98182 130.633 10.6321C131.137 11.2824 131.387 12.1647 131.387 13.2775L131.39 13.276ZM124.089 3.90335H123.084V7.39595H124.142C124.724 7.39595 125.12 7.2372 125.332 6.92122C125.545 6.60523 125.65 6.18087 125.65 5.64965C125.65 5.01616 125.526 4.56737 125.279 4.30176C125.032 4.03616 124.636 3.90335 124.089 3.90335ZM125.807 12.6074C125.807 11.9052 125.68 11.4137 125.424 11.1313C125.167 10.8489 124.74 10.7069 124.14 10.7069H123.082V14.6865H124.14C124.74 14.6865 125.167 14.5247 125.424 14.198C125.678 13.8728 125.807 13.3416 125.807 12.6059V12.6074Z" fill="url(#paint0_linear_419_15051)"/>
</g>
<defs>
<linearGradient id="paint0_linear_419_15051" x1="0" y1="8.96048" x2="131.39" y2="8.96048" gradientUnits="userSpaceOnUse">
<stop offset="0.59375" stop-color="white"/>
<stop offset="0.664773" stop-color="#1098C7"/>
<stop offset="0.823864" stop-color="#18B2D1"/>
<stop offset="1" stop-color="#1EC7D9"/>
</linearGradient>
<clipPath id="clip0_419_15051">
<rect width="131.39" height="18.6674" fill="white"/>
</clipPath>
</defs>
</svg>
