<svg width="156" height="25" viewBox="0 0 156 25" fill="none" xmlns="http://www.w3.org/2000/svg">
<path fill-rule="evenodd" clip-rule="evenodd" d="M40.0792 17.7624C49.0515 18.3506 53.4679 10.405 44.4656 7.94261C40.787 6.94568 37.1283 7.7233 33.1904 10.2056C36.2609 9.44798 39.9894 8.86977 42.6014 9.767C46.6888 11.1727 48.4932 14.8812 40.0792 17.7424" fill="#041527"/>
<path d="M13.2387 4.64222H9.7793V22.6667H5.40278V4.64222H1.96338V0.524897H13.2387V4.64222ZM16.7379 9.62686H16.678V7.84237H12.5308V22.6667H16.678V15.2396C16.678 13.0363 16.678 11.2518 19.4694 11.2518C19.6833 11.2555 19.8966 11.2756 20.1075 11.3117V7.32395C19.396 7.38847 18.7129 7.63393 18.1231 8.03703C17.5333 8.44012 17.0564 8.98743 16.7379 9.62686ZM28.0032 16.8846C28.0032 17.6223 28.0929 19.0877 27.0063 19.0877C25.6305 19.0877 25.9495 16.7947 25.9495 15.9773V7.84237H21.7823V16.7349C21.7823 19.4366 22.1611 22.9658 26.8666 22.9658C30.5353 22.9658 32.1504 20.7326 32.1504 17.2932V7.84237H28.033L28.0032 16.8846ZM50.1649 11.3914C50.1649 17.2035 53.6541 22.9059 59.9747 22.9059C60.6583 22.9081 61.3357 22.7759 61.9685 22.5171V18.3799C61.4306 18.5754 60.8655 18.6863 60.2936 18.7088C56.4754 18.7088 54.8005 14.6514 54.8005 11.3615C54.8005 8.07164 56.4754 4.46277 60.3236 4.46277C60.8792 4.47048 61.4319 4.54748 61.9685 4.69205V0.704338C61.2706 0.438678 60.5318 0.296994 59.7852 0.285645C53.8036 0.285645 50.1649 5.89836 50.1649 11.3914ZM73.9814 15.2396C73.9814 19.0279 72.7752 22.9358 68.3389 22.9358C63.9025 22.9358 62.6962 19.0279 62.6962 15.2396C62.6962 11.4512 63.9025 7.51337 68.3389 7.51337C72.7752 7.51337 73.9814 11.4812 73.9814 15.2396ZM69.8342 15.2396C69.8342 14.3922 69.7744 11.2518 68.3389 11.2518C66.9033 11.2518 66.8435 14.4021 66.8435 15.2396C66.8435 16.0769 66.9033 19.2273 68.3389 19.2273C69.7744 19.2273 69.8342 16.1169 69.8342 15.2396ZM89.065 7.51337C88.2997 7.57527 87.5657 7.84341 86.9408 8.2893C86.3158 8.73518 85.8234 9.3421 85.5159 10.0456H85.4561C85.4311 9.37852 85.1535 8.74593 84.6797 8.2758C84.2059 7.80565 83.5712 7.53313 82.9039 7.51337C82.1028 7.55904 81.332 7.83559 80.6845 8.30969C80.0371 8.78378 79.5406 9.43514 79.2552 10.1851V7.81244H75.108V22.6368H79.2552V13.4451C79.2552 12.6874 79.3948 11.7503 80.4316 11.7503C81.4684 11.7503 81.4285 13.6245 81.4285 14.3622V22.6667H85.5658V13.3553C85.5658 12.6874 85.7153 11.6806 86.6823 11.6806C87.9185 11.6806 87.6793 13.8638 87.6793 14.6713V22.7165H91.8165V12.4182C91.7367 10.5141 91.7367 7.54331 89.065 7.54331V7.51337ZM107.09 7.51337C106.325 7.57527 105.59 7.84341 104.966 8.2893C104.341 8.73518 103.848 9.3421 103.54 10.0456H103.48C103.455 9.37852 103.178 8.74593 102.704 8.2758C102.23 7.80565 101.595 7.53313 100.928 7.51337C100.128 7.55845 99.3585 7.8349 98.7125 8.3092C98.0665 8.7835 97.5722 9.43522 97.2897 10.1851H97.2298V7.81244H93.0926V22.6368H97.2298V13.4451C97.2298 12.6874 97.3794 11.7503 98.4062 11.7503C99.433 11.7503 99.4032 13.6245 99.4032 14.3622V22.6667H103.54V13.3553C103.54 12.6874 103.69 11.6806 104.657 11.6806C105.893 11.6806 105.654 13.8638 105.654 14.6713V22.7165H109.801V12.4182C109.771 10.5141 109.771 7.54331 107.09 7.54331V7.51337ZM121.456 14.6214L121.365 16.3262H114.815C114.815 17.4129 114.815 19.7656 116.371 19.7656C117.427 19.7656 117.697 18.9382 117.697 18.0608H121.216C120.867 20.7925 119.541 22.9358 116.52 22.9358C112.324 22.9358 110.818 19.1974 110.818 15.5286C110.818 11.8599 112.114 7.55323 116.431 7.55323C119.162 7.54326 121.685 9.98572 121.456 14.6514V14.6214ZM117.866 13.4152C117.866 12.4182 117.667 10.6836 116.371 10.6836C115.075 10.6836 114.845 12.3883 114.845 13.3255V13.7741H117.836L117.866 13.4152ZM126.708 9.59698H126.649V7.81244H122.512V22.6368H126.649V15.2396C126.649 13.0363 126.649 11.2518 129.441 11.2518C129.658 11.256 129.874 11.276 130.089 11.3117V7.32395C129.376 7.38776 128.69 7.63285 128.1 8.03593C127.508 8.439 127.029 8.98667 126.708 9.62686V9.59698ZM130.757 15.3293C130.757 18.6989 132.172 22.9358 136.19 22.9358C137.013 22.9365 137.826 22.7563 138.572 22.4074V18.6192C138.204 18.8898 137.763 19.0427 137.307 19.0579C135.222 19.0579 134.894 16.6751 134.894 15.0701C134.894 13.4651 135.343 11.0824 137.366 11.0824C137.589 11.0699 137.812 11.1053 138.02 11.1861C138.228 11.2669 138.416 11.3913 138.572 11.5509V7.90219C137.922 7.61329 137.219 7.46386 136.508 7.46354C132.222 7.5433 130.757 11.6307 130.757 15.3592V15.3293ZM149.908 14.6214L149.818 16.3262H143.268C143.268 17.4129 143.268 19.7656 144.823 19.7656C145.88 19.7656 146.149 18.9382 146.149 18.0608H149.668C149.32 20.7925 147.994 22.9358 144.973 22.9358C140.766 22.9358 139.271 19.1974 139.271 15.5286C139.271 11.8599 140.567 7.55323 144.883 7.55323C147.614 7.54326 150.137 9.98572 149.908 14.6514V14.6214ZM146.318 13.4152C146.318 12.4182 146.119 10.6836 144.823 10.6836C143.527 10.6836 143.298 12.3883 143.298 13.3255V13.7741H146.288L146.318 13.4152ZM40.3252 20.3937C39.6499 20.0944 39.0458 19.6554 38.5527 19.1054C38.0595 18.5556 37.6887 17.9073 37.4644 17.2036C37.2402 16.4999 37.1678 15.7566 37.2519 15.0227C37.336 14.2889 37.5748 13.5814 37.9525 12.9466C38.6842 11.8459 39.7245 10.9858 40.9433 10.4742C38.7709 10.6507 36.7451 11.6405 35.2708 13.2457C34.6135 14.0232 34.1655 14.9557 33.9694 15.9548C33.7732 16.9538 33.8353 17.9864 34.1498 18.9547C34.4642 19.9231 35.0206 20.7951 35.7663 21.4883C36.5121 22.1815 37.4224 22.6728 38.4111 22.9159C41.8704 23.9128 47.4931 22.7863 49.2078 18.8585C47.0046 20.603 43.0269 21.4904 40.3252 20.4236V20.3937ZM149.987 8.50032H150.745V10.4942H151.044V8.50032H151.802V8.26107H149.987V8.50032ZM153.786 8.23113L153.148 10.1253L152.5 8.26107H152.061V10.5042H152.35V8.92899C152.35 8.81933 152.35 8.73957 152.35 8.67976V8.61995L152.998 10.5042H153.297L153.935 8.61995V8.95893C153.932 9.03198 153.932 9.10517 153.935 9.17823V10.5042H154.224V8.26107L153.786 8.23113Z" fill="#041527"/>
</svg>
