<svg width="105" height="45" viewBox="0 0 105 45" fill="none" xmlns="http://www.w3.org/2000/svg">
<path d="M56.3054 10.1584C54.8846 10.1584 53.8848 11.2372 53.8848 12.8423V25.7882C53.8848 27.3932 54.8846 28.472 56.3054 28.472C57.7264 28.472 58.7263 27.3932 58.7263 25.7882V12.8423C58.7263 11.2372 57.7001 10.1584 56.3054 10.1584Z" fill="#041527"/>
<path d="M63.1439 2.34375C61.7231 2.34375 60.7233 3.42258 60.7233 5.02764V25.7883C60.7233 27.3934 61.7231 28.4722 63.1439 28.4722C64.5649 28.4722 65.5648 27.3934 65.5648 25.7883V5.02764C65.5648 3.42258 64.5387 2.34375 63.1439 2.34375Z" fill="#041527"/>
<path d="M95.9789 9.94811C94.4521 9.94811 92.5842 10.3954 91.5579 11.6321H91.479V5.02764C91.479 3.42258 90.4792 2.34375 89.0582 2.34375C87.6374 2.34375 86.6376 3.42258 86.6376 5.02764V25.7883C86.6376 27.3934 87.6374 28.4722 89.0582 28.4722C90.4792 28.4722 91.479 27.3934 91.479 25.7883V17.342C91.479 15.4475 92.5842 14.0002 94.5843 14.0002C96.347 14.0002 97.7415 15.079 97.7415 17.342V25.8146C97.7415 27.4197 98.7413 28.4985 100.162 28.4985C101.582 28.4985 102.584 27.4197 102.584 25.8146V16.4999C102.609 12.3952 99.7677 9.94811 95.9789 9.94811Z" fill="#041527"/>
<path d="M83.6651 21.6053C82.5599 20.737 80.9812 20.9475 80.1128 22.0526C79.2972 23.0788 78.1131 23.684 76.7975 23.684C74.482 23.684 72.6138 21.7894 72.6138 19.5002C72.6138 17.2111 74.5083 15.3166 76.7975 15.3166C78.0078 15.3166 79.1656 15.8428 79.9813 16.7637C80.9022 17.8163 82.481 17.9478 83.5598 17.0268C84.6124 16.1059 84.744 14.5271 83.823 13.4484C82.06 11.4223 79.5077 10.2383 76.8238 10.2383C71.7191 10.2383 67.5617 14.3956 67.5617 19.5002C67.5617 24.605 71.7191 28.7623 76.8238 28.7623C79.6918 28.7623 82.3758 27.4467 84.1387 25.1838C84.9545 24.0523 84.7702 22.4735 83.6651 21.6053Z" fill="#041527"/>
<path d="M51.1148 14.2642C51.1411 14.2379 51.1411 14.2379 51.1675 14.2115C51.1938 14.1852 51.22 14.1589 51.2464 14.1326C51.2726 14.1063 51.299 14.0799 51.3253 14.0537C51.3516 14.0274 51.378 14.0011 51.4042 13.9748C51.4306 13.9483 51.4569 13.9221 51.4831 13.8694C51.5095 13.8432 51.5095 13.8168 51.5358 13.7906C51.5621 13.7643 51.5885 13.7379 51.5885 13.6852C51.6147 13.659 51.6147 13.6327 51.6411 13.6063C51.6674 13.5801 51.6674 13.5537 51.6937 13.5011C51.72 13.4747 51.72 13.4221 51.7462 13.3958C51.7462 13.3696 51.7726 13.3432 51.7726 13.2906C51.7726 13.2642 51.7989 13.2116 51.7989 13.1854C51.7989 13.159 51.8253 13.1327 51.8253 13.0801C51.8253 13.0538 51.8516 13.0011 51.8516 12.9749C51.8516 12.9485 51.8516 12.8959 51.8779 12.8696C51.8779 12.8434 51.8778 12.7906 51.9042 12.7643C51.9042 12.7118 51.9042 12.6854 51.9042 12.6328C51.9042 12.6065 51.9042 12.5801 51.9042 12.5538V12.5275C51.9042 12.4749 51.9042 12.4486 51.9042 12.396C51.9042 12.3696 51.9042 12.3433 51.9042 12.2907C51.9042 12.2381 51.9042 12.2118 51.8779 12.1592C51.8779 12.1328 51.8779 12.1064 51.8516 12.0539C51.8516 12.0276 51.8253 11.9749 51.8253 11.9487C51.8253 11.9224 51.7989 11.8697 51.7989 11.8433C51.7989 11.8171 51.7726 11.7645 51.7726 11.7382C51.7726 11.7118 51.7462 11.6592 51.7462 11.6328C51.72 11.6066 51.72 11.5802 51.6937 11.554C51.6674 11.5277 51.6674 11.4751 51.6411 11.4486C51.6147 11.4224 51.6147 11.3961 51.5885 11.3697C51.5621 11.3435 51.5358 11.2908 51.5095 11.2646C51.4831 11.2382 51.4831 11.2119 51.4569 11.1855C51.4306 11.1592 51.4042 11.1066 51.378 11.0804C51.378 11.0804 51.378 11.0804 51.3516 11.054C51.3253 11.0277 51.3253 11.0277 51.299 11.0014C51.2726 10.975 51.2464 10.9488 51.22 10.9224C51.1938 10.8961 51.1675 10.8699 51.1411 10.8435C51.1148 10.8172 51.0884 10.7909 51.0622 10.7645C51.0359 10.7383 51.0095 10.7119 50.9569 10.6856C50.9307 10.6593 50.9044 10.6593 50.8779 10.633C50.8517 10.6068 50.799 10.5804 50.7728 10.5804C50.7464 10.5541 50.7202 10.5541 50.6938 10.5277C50.6675 10.5014 50.6148 10.5014 50.5886 10.4752C50.5623 10.4488 50.5097 10.4488 50.4833 10.4225C50.457 10.4225 50.4306 10.3962 50.3781 10.3962C50.3517 10.3962 50.2992 10.3699 50.2728 10.3699C50.2466 10.3699 50.2202 10.3436 50.1675 10.3436C50.1412 10.3436 50.0886 10.3172 50.0623 10.3172C50.0361 10.3172 49.9834 10.3172 49.957 10.2909C49.9307 10.2909 49.8781 10.2909 49.8518 10.2646C49.7992 10.2646 49.773 10.2646 49.7202 10.2646C49.6939 10.2646 49.6676 10.2646 49.6414 10.2646H39.4057C38.1691 10.2646 37.1954 11.2646 37.1954 12.4749C37.1954 13.6852 38.1953 14.6852 39.4057 14.6852H44.1946C39.1425 20.316 37.4059 25.2628 37.3007 25.5259V25.5522C37.2744 25.6049 37.2744 25.6313 37.2744 25.6838C37.2744 25.7102 37.2481 25.7364 37.2481 25.7628C37.2481 25.7891 37.2217 25.8418 37.2217 25.868C37.2217 25.8944 37.1954 25.9469 37.1954 25.9733C37.1954 25.9995 37.1954 26.026 37.1954 26.0523C37.1954 26.1049 37.1954 26.1575 37.1954 26.1838C37.1954 26.1838 37.1954 26.2364 37.1954 26.2628C37.1954 26.3154 37.1954 26.368 37.1954 26.3943C37.1954 26.4206 37.1954 26.4469 37.1954 26.4732C37.1954 26.5259 37.1954 26.5522 37.2217 26.6048C37.2217 26.6311 37.2481 26.6837 37.2481 26.7101C37.2481 26.7364 37.2744 26.789 37.2744 26.8153C37.2744 26.8416 37.3007 26.8942 37.3007 26.9205C37.3007 26.947 37.327 26.9732 37.327 26.9995C37.3533 27.0258 37.3533 27.0784 37.3797 27.1047C37.3797 27.131 37.4059 27.1574 37.4059 27.1837C37.4322 27.2101 37.4322 27.2626 37.4585 27.2889C37.4849 27.3152 37.4849 27.3416 37.5113 27.3678C37.5375 27.3942 37.5638 27.4206 37.5638 27.4468C37.5901 27.4732 37.6164 27.4994 37.6164 27.5257C37.6428 27.5521 37.669 27.5783 37.669 27.6047C37.6953 27.631 37.7217 27.6573 37.748 27.6837C37.7744 27.7099 37.8006 27.7362 37.8006 27.7362C37.8269 27.7625 37.8533 27.7888 37.9059 27.8152C37.9322 27.8415 37.9585 27.8415 37.9849 27.8678C38.0111 27.8942 38.0374 27.9204 38.09 27.9468C38.1164 27.973 38.1426 27.973 38.1691 27.9993C38.1953 28.0257 38.2216 28.0257 38.2742 28.0519C38.3006 28.0784 38.3531 28.0784 38.3795 28.1046C38.4058 28.1309 38.4321 28.1309 38.4585 28.1309C38.5111 28.1573 38.5373 28.1573 38.59 28.1835C38.6163 28.1835 38.6163 28.2099 38.6427 28.2099H38.6689C38.6953 28.2099 38.7216 28.2362 38.7742 28.2362C38.8005 28.2362 38.8532 28.2624 38.8794 28.2624C38.9058 28.2624 38.9321 28.2624 38.9583 28.2888C39.0109 28.2888 39.0636 28.3151 39.0899 28.3151C39.1163 28.3151 39.1163 28.3151 39.1425 28.3151C39.2214 28.3151 39.2741 28.3151 39.353 28.3151C39.353 28.3151 39.353 28.3151 39.3794 28.3151H49.5887C50.8253 28.3151 51.7989 27.3152 51.7989 26.1049C51.7989 24.8945 50.799 23.8946 49.5887 23.8946H42.8789C44.3262 21.6317 46.8785 17.8953 51.1148 14.2642Z" fill="#041527"/>
<path d="M2.39066 11.1054C8.33732 7.47434 14.284 3.81688 20.2043 0.185726C20.6779 -0.103714 21.2831 -0.0510882 21.7041 0.317289C24.0722 2.44861 26.4668 4.57994 28.8348 6.71127C29.2559 7.07964 29.3875 7.68484 29.1506 8.18478C26.5457 13.8157 23.9407 19.4466 21.3094 25.0512C21.02 25.6828 21.3884 26.4195 22.0462 26.5773C24.6249 27.1825 27.2035 27.7614 29.7821 28.3665C30.6242 28.5508 30.8346 29.6296 30.1505 30.1295C24.3091 34.4185 18.4414 38.7075 12.6 42.9964C11.9948 43.4438 11.1792 43.47 10.5476 43.0491C7.75844 41.2334 4.9693 39.4179 2.18016 37.6023C1.6539 37.2602 1.4434 36.5761 1.73284 35.9973C4.12729 30.919 6.54805 25.8406 8.94251 20.7885C9.17933 20.2623 9.07407 19.6571 8.67939 19.2361C6.52174 17.0785 4.3641 14.9208 2.20647 12.7895C1.70653 12.3159 1.81178 11.4738 2.39066 11.1054Z" fill="#041527"/>
</svg>
